<?xml version="1.0" standalone="no"?>
<!DOCTYPE svg PUBLIC "-//W3C//DTD SVG 20010904//EN"
 "http://www.w3.org/TR/2001/REC-SVG-20010904/DTD/svg10.dtd">
<svg version="1.0" xmlns="http://www.w3.org/2000/svg"
 width="194.000000pt" height="259.000000pt" viewBox="0 0 194.000000 259.000000"
 preserveAspectRatio="xMidYMid meet">
<metadata>
Created by potrace 1.16, written by Peter Selinger 2001-2019
</metadata>
<g transform="translate(0.000000,259.000000) scale(0.100000,-0.100000)"
fill="#000000" stroke="none">
<path d="M0 1295 l0 -1295 970 0 970 0 0 1295 0 1295 -970 0 -970 0 0 -1295z
m1860 0 l0 -1215 -890 0 -890 0 0 1215 0 1215 890 0 890 0 0 -1215z"/>
<path d="M90 2187 c1 -234 4 -317 13 -321 9 -3 9 -7 -1 -14 -10 -7 -12 -62
-10 -258 3 -242 4 -250 26 -281 13 -18 19 -33 13 -33 -5 0 -13 5 -16 10 -10
17 -25 11 -25 -9 0 -10 7 -21 15 -25 8 -3 15 -12 15 -21 0 -30 19 -14 36 30 9
25 22 44 28 42 6 -2 18 -22 26 -45 8 -23 20 -42 27 -42 18 0 16 42 -2 66 -8
10 -15 34 -15 52 0 17 -4 32 -9 32 -6 0 -8 9 -6 20 2 11 -1 20 -7 20 -7 0 -9
-16 -6 -44 5 -37 3 -43 -11 -39 -21 5 -36 29 -46 71 -6 29 -5 32 19 32 30 0
42 16 27 34 -9 10 -7 16 6 21 10 5 21 8 25 7 3 -1 11 5 17 12 9 11 4 13 -29 9
-31 -4 -40 -2 -40 10 0 9 8 16 18 16 40 1 49 5 48 20 -1 9 5 16 12 17 6 1 20
2 30 3 15 2 14 3 -3 10 -11 5 -23 7 -26 5 -4 -2 -9 6 -12 17 -4 15 -2 19 9 15
8 -3 14 -1 14 4 0 6 -10 10 -23 10 -15 0 -24 6 -24 15 0 9 6 14 14 11 10 -4
10 -1 1 14 -9 14 -16 16 -29 9 -23 -12 -26 -12 -26 5 0 8 6 12 12 9 17 -6 45
25 38 42 -4 11 -1 13 13 8 16 -5 17 -4 8 8 -22 27 -27 59 -10 59 9 0 16 7 16
15 0 8 9 15 19 15 21 0 38 -49 25 -72 -5 -10 -4 -10 6 -1 11 10 11 20 3 48
l-11 35 38 -2 c29 -2 36 -6 28 -15 -6 -7 -7 -13 -3 -13 4 0 0 -12 -10 -26 -9
-15 -13 -24 -7 -20 5 3 13 -1 16 -10 8 -22 9 -20 -24 -34 -17 -7 -30 -16 -30
-21 0 -5 11 -2 25 7 31 20 32 10 4 -36 -12 -19 -15 -29 -7 -22 20 16 30 4 17
-20 -9 -18 -8 -18 10 -9 18 10 20 9 14 -6 -5 -15 -3 -15 10 2 9 11 17 26 17
33 0 22 19 13 26 -13 5 -19 0 -30 -17 -45 -13 -10 -18 -19 -11 -20 8 0 9 -5 3
-17 -5 -10 -14 -29 -20 -43 -10 -23 -11 -23 -7 -2 2 12 0 20 -5 16 -5 -3 -9
-12 -9 -20 0 -8 -6 -14 -14 -14 -8 0 -18 -5 -22 -12 -5 -7 -3 -8 6 -3 8 5 11
3 8 -6 -3 -8 -11 -13 -17 -11 -7 1 -10 -2 -6 -8 3 -5 1 -10 -6 -10 -6 0 -10
10 -7 23 3 17 0 23 -15 23 -15 0 -18 -6 -15 -34 4 -31 2 -33 -19 -29 -13 2
-23 0 -23 -4 0 -5 15 -9 34 -9 29 0 33 -3 29 -20 -4 -15 0 -20 16 -20 19 0 20
3 11 20 -9 17 -8 20 10 20 12 0 19 4 15 10 -3 5 -13 6 -23 3 -19 -7 -17 -4 13
17 11 8 17 11 13 6 -13 -16 21 -36 60 -36 26 0 42 -5 46 -15 3 -8 1 -15 -4
-15 -14 0 -12 -38 2 -42 21 -7 1 -37 -21 -31 -12 3 -21 1 -21 -6 0 -6 14 -11
31 -11 28 0 30 -2 27 -32 -2 -18 -7 -32 -13 -30 -10 2 -11 6 -14 37 0 8 -6 15
-12 15 -7 0 -10 -17 -7 -45 3 -40 1 -45 -17 -45 -18 0 -20 6 -17 48 2 34 0 43
-7 32 -5 -8 -13 -11 -17 -7 -4 4 -13 -1 -20 -11 -11 -14 -9 -21 8 -39 19 -20
19 -23 5 -23 -9 0 -17 -7 -17 -16 0 -9 5 -12 12 -8 7 5 41 7 77 6 l64 -2 -7
40 c-9 55 6 80 48 80 27 0 35 -6 49 -32 16 -33 16 -33 16 -6 1 14 -5 29 -11
31 -7 3 -3 6 10 6 12 1 22 5 22 10 0 13 -45 22 -78 16 -26 -5 -26 -5 -4 6 12
7 22 17 21 23 -3 23 1 36 12 36 6 0 9 -6 6 -14 -8 -20 3 -27 23 -16 28 15 59
2 52 -23 -4 -18 -3 -20 9 -11 19 15 58 24 64 15 2 -5 -12 -22 -32 -40 -21 -19
-32 -35 -26 -39 5 -4 10 -14 10 -24 0 -13 -5 -14 -23 -8 -13 5 -25 6 -28 2 -8
-13 22 -44 41 -42 10 1 20 1 23 0 17 -8 109 -7 105 1 -4 5 -1 9 5 9 6 0 8 6 5
13 -4 6 0 4 8 -5 8 -10 17 -15 20 -12 3 3 4 -2 1 -13 -5 -22 15 -55 23 -35 2
7 11 19 20 27 13 13 12 15 -9 15 -18 0 -20 2 -8 10 8 5 11 10 5 10 -5 0 -3 5
5 10 8 5 15 15 16 22 3 41 4 41 29 18 14 -13 25 -20 25 -15 0 5 5 4 12 -3 7
-7 20 -12 30 -12 11 0 18 -7 18 -20 0 -23 -10 -26 -28 -8 -7 7 -12 9 -12 5 0
-13 44 -47 62 -47 10 0 18 -7 18 -15 0 -20 37 -39 43 -22 2 6 0 20 -5 30 -7
13 -4 17 12 17 11 0 20 5 20 10 0 6 6 10 13 10 7 0 13 -17 13 -46 2 -58 23
-83 48 -59 23 23 22 92 -1 98 -14 3 -11 7 11 16 23 9 31 9 38 -1 6 -10 11 -9
19 5 12 20 30 22 48 5 6 -7 17 -13 23 -13 24 0 17 -24 -16 -53 -29 -25 -32
-32 -18 -35 16 -4 16 -5 0 -6 -9 0 -19 -9 -22 -19 -4 -10 -22 -24 -42 -31 -35
-13 -36 -14 -32 -59 3 -41 1 -45 -19 -47 -26 -2 -30 21 -12 58 10 21 10 21 -5
3 -9 -11 -16 -16 -17 -10 0 5 -5 -2 -10 -15 -13 -33 -22 -20 -14 22 6 28 11
34 26 30 10 -3 19 -1 19 5 0 20 -42 8 -51 -15 -5 -13 -13 -23 -19 -23 -6 0 -6
-9 0 -25 6 -16 6 -25 0 -25 -6 0 -10 8 -11 18 0 9 -3 12 -5 5 -9 -20 -34 -2
-34 24 0 17 4 23 14 20 8 -3 16 2 19 14 3 11 11 18 17 17 7 -2 15 3 17 10 8
22 -72 14 -122 -12 -39 -21 -121 -78 -88 -62 7 4 6 -5 -4 -24 -14 -29 -26 -37
-80 -54 -20 -6 -21 -5 -10 18 6 13 14 24 17 24 19 -1 21 5 5 22 -10 11 -21 17
-25 15 -5 -3 -6 3 -3 14 6 24 43 16 43 -10 0 -17 30 -29 30 -11 0 4 16 25 35
46 19 22 32 42 30 46 -2 4 6 6 18 6 13 -1 22 5 22 14 0 20 -36 26 -50 9 -20
-26 -85 -54 -71 -31 2 4 -7 12 -20 19 -13 6 -22 7 -18 2 3 -5 -3 -9 -13 -9
-15 0 -18 7 -14 47 3 43 2 46 -13 34 -10 -9 -16 -10 -16 -2 0 6 -7 11 -15 11
-23 0 -18 -16 10 -28 25 -11 30 -27 20 -54 -7 -18 -61 -12 -69 8 -8 21 11 27
23 7 5 -10 13 -14 18 -10 10 11 -27 38 -40 30 -6 -3 -7 -1 -3 5 4 7 2 20 -4
29 -8 14 -10 8 -8 -29 l3 -48 -45 0 c-25 0 -40 -4 -34 -8 6 -4 14 -19 17 -33
6 -22 3 -25 -16 -24 -18 1 -22 8 -22 36 0 19 3 44 7 57 4 12 3 22 -2 22 -5 0
-12 -11 -16 -25 -9 -35 -19 -31 -37 13 -13 33 -15 34 -16 12 -1 -15 4 -31 11
-38 9 -9 8 -12 -8 -12 -17 0 -19 6 -16 45 3 37 1 45 -13 45 -14 0 -16 -8 -13
-45 3 -40 1 -45 -17 -45 -18 0 -20 6 -17 48 2 33 0 43 -7 33 -8 -13 -12 -13
-26 -1 -16 13 -17 11 -14 -33 4 -42 2 -47 -16 -47 -18 0 -20 5 -16 47 3 43 2
46 -13 34 -12 -10 -14 -23 -10 -55 4 -22 11 -46 15 -52 5 -6 7 -14 4 -18 -3
-3 1 -2 7 4 19 16 27 12 21 -10 -4 -14 0 -20 11 -20 9 0 16 8 16 20 0 12 7 20
18 20 14 0 15 -2 2 -10 -13 -9 -13 -10 0 -10 13 0 13 -2 1 -9 -11 -7 -10 -10
5 -14 10 -2 0 -5 -23 -6 -28 -1 -43 3 -43 12 0 8 -3 7 -10 -3 -11 -18 -12 -17
-34 53 -14 42 -24 57 -38 57 -16 0 -17 -3 -8 -20 9 -17 8 -20 -13 -20 -21 0
-23 4 -20 33 2 17 0 25 -3 17 -23 -53 -87 -70 -104 -26 -21 56 28 102 76 71
20 -13 23 -13 18 0 -5 11 2 13 38 9 31 -3 39 -2 28 6 -8 5 -38 10 -67 10 -42
0 -51 3 -47 15 4 9 0 15 -9 15 -20 0 -33 -20 -15 -21 7 -1 0 -5 -17 -8 -21 -6
-34 -3 -42 8 -11 12 -13 8 -13 -28 0 -37 6 -48 55 -98 30 -31 55 -51 55 -45 0
7 22 10 63 9 55 -2 62 -4 65 -24 4 -24 32 -54 32 -34 0 7 5 9 10 6 17 -10 11
-53 -8 -58 -16 -4 -16 -5 1 -6 9 0 17 -6 17 -12 0 -5 4 -7 10 -4 5 3 8 0 5 -7
-3 -7 4 -26 15 -43 11 -16 20 -24 20 -17 0 27 15 10 16 -19 1 -16 8 -35 17
-42 8 -7 17 -25 21 -42 3 -16 10 -47 15 -68 7 -29 6 -41 -6 -52 -9 -10 -10
-15 -3 -15 7 0 2 -18 -13 -44 -16 -29 -23 -54 -20 -78 3 -29 -2 -39 -29 -64
-27 -23 -30 -29 -15 -32 24 -5 24 -62 0 -62 -11 0 -14 -3 -7 -8 6 -4 13 -20
16 -36 5 -22 0 -34 -16 -49 -11 -10 -15 -16 -8 -12 9 5 11 -3 6 -32 -4 -29 -2
-42 10 -52 11 -10 13 -18 6 -31 -7 -13 -6 -20 6 -24 30 -12 93 -6 108 10 9 8
20 12 26 9 5 -3 10 1 10 9 0 8 10 18 21 21 17 6 19 9 8 16 -12 8 -12 10 0 18
13 8 74 -8 106 -29 6 -3 46 -6 90 -5 48 0 85 -5 93 -12 13 -13 17 -27 4 -19
-4 2 -14 1 -21 -3 -17 -11 141 -22 182 -13 32 7 32 7 -13 13 l-45 6 52 1 c31
1 57 -3 65 -11 18 -18 228 -18 250 1 9 7 24 10 34 6 12 -4 15 -3 7 3 -18 13 8
41 43 45 23 2 28 -1 26 -15 -2 -12 4 -17 19 -17 16 0 20 -5 16 -19 -4 -17 2
-18 77 -17 44 1 87 5 94 9 6 5 12 6 12 2 0 -3 9 -1 20 5 34 18 25 54 -21 85
-23 15 -38 22 -35 17 3 -6 2 -13 -3 -17 -11 -6 -34 29 -25 38 3 3 -10 22 -30
41 -30 31 -35 41 -30 69 3 17 11 42 17 55 8 17 8 25 0 30 -8 5 -6 38 8 117 10
61 21 121 25 134 7 23 8 23 21 6 12 -17 13 -17 13 9 0 27 13 46 70 105 48 49
82 100 74 112 -4 8 -3 9 4 5 8 -4 16 4 22 21 6 15 15 36 20 46 6 10 10 82 9
166 l0 148 -37 1 c-20 0 -31 -2 -24 -5 6 -2 9 -9 6 -14 -3 -6 -11 -3 -18 6
-10 14 -13 14 -32 -3 -16 -15 -22 -16 -32 -6 -10 11 -8 16 10 25 12 7 31 12
43 13 16 1 20 8 21 33 0 42 12 53 30 29 16 -22 27 -16 31 19 4 24 -12 36 -19
14 -2 -5 -11 -7 -21 -4 -9 4 -14 11 -11 16 3 5 9 7 14 4 5 -3 11 -1 15 5 4 6
-5 10 -19 10 -14 0 -26 -3 -26 -8 0 -13 -123 -8 -127 5 -3 8 16 13 64 15 66 3
67 3 33 14 -20 6 -40 7 -46 2 -15 -11 -72 -13 -104 -3 -14 4 -41 21 -60 36
-19 16 -38 29 -43 29 -19 0 -55 33 -50 45 4 11 11 10 34 -7 37 -28 53 -13 17
16 -28 22 -38 56 -17 56 6 0 9 -6 6 -14 -6 -15 38 -40 54 -30 6 3 13 -3 16
-15 4 -15 13 -21 34 -21 29 0 39 -14 17 -23 -7 -3 -4 -5 7 -4 11 0 35 -3 53
-7 21 -5 32 -4 32 3 0 6 5 11 11 11 22 0 62 41 65 65 1 14 -2 25 -7 25 -5 0
-9 -10 -9 -21 0 -16 -3 -19 -12 -12 -7 6 -32 9 -56 8 -43 -3 -112 13 -112 25
0 3 32 6 71 7 40 1 74 5 78 11 7 10 40 10 58 -1 6 -4 15 -2 19 4 4 7 3 9 -3 6
-6 -4 -9 5 -7 24 3 27 2 30 -11 19 -12 -10 -15 -10 -15 1 -1 10 -4 9 -11 -3
-5 -9 -16 -15 -23 -12 -8 3 -17 1 -21 -5 -3 -6 -21 -11 -38 -11 -32 0 -32 1
13 21 25 11 55 30 67 41 l22 21 31 -33 30 -32 -19 -32 -20 -31 25 0 25 0 -2
203 c-1 111 -5 202 -10 202 -5 0 -10 -15 -10 -32 -2 -30 -2 -31 -6 -6 -2 15 1
37 7 49 10 17 9 20 -1 17 -8 -3 -20 1 -27 9 -7 7 -22 13 -33 13 -11 0 -22 6
-24 13 -3 6 -21 13 -40 15 -27 1 -37 -2 -43 -17 -6 -16 -9 -17 -20 -5 -10 11
-10 14 0 14 9 0 10 2 2 8 -7 4 -14 16 -17 27 -5 19 -5 19 -6 -1 -1 -19 -4 -20
-52 -10 -44 9 -53 8 -63 -6 -8 -11 -25 -16 -47 -16 -19 1 -28 3 -21 5 6 3 12
9 12 14 0 4 -7 6 -15 3 -12 -5 -15 5 -15 60 l0 66 50 -2 c48 -2 50 -4 50 -31
0 -15 4 -26 10 -22 5 3 7 12 3 20 -4 11 2 15 21 15 19 0 29 -7 36 -26 9 -22
15 -25 50 -23 33 3 45 -1 63 -22 13 -15 37 -28 59 -32 33 -5 37 -3 43 21 l8
27 9 -30 c6 -16 9 -40 9 -53 0 -13 4 -20 9 -17 6 3 10 27 9 53 0 35 -3 42 -9
27 -7 -16 -9 -12 -9 20 -1 26 -4 35 -10 27 -7 -11 -9 -11 -14 2 -4 9 -2 16 3
16 6 0 10 19 11 43 0 37 1 39 10 18 5 -14 7 -31 4 -38 -2 -8 0 -11 5 -8 6 3
10 26 10 51 0 69 -30 111 -45 64 -8 -24 -25 -27 -25 -4 0 10 -6 14 -15 10 -10
-3 -15 1 -15 12 0 15 -2 15 -11 2 -8 -11 -12 -12 -16 -2 -2 6 -8 10 -13 7 -12
-7 5 -60 19 -57 13 3 14 -8 1 -28 -8 -13 -10 -12 -10 3 0 9 -4 17 -9 17 -5 0
-12 9 -16 19 -4 12 -12 18 -21 14 -8 -3 -21 1 -30 8 -12 10 -15 10 -12 -2 2
-8 -4 -13 -13 -11 -11 1 -21 -8 -27 -28 -15 -41 -59 -43 -68 -2 -10 47 -12 48
-13 7 l-2 -40 -16 27 c-22 35 -49 48 -30 15 6 -12 17 -25 22 -29 14 -11 -27
-9 -44 1 -13 8 -12 26 5 83 4 13 1 16 -10 12 -12 -5 -16 0 -16 20 0 25 3 26
53 26 50 0 54 -2 70 -32 l16 -33 -5 31 c-5 24 -2 31 10 31 9 0 16 -4 16 -9 0
-4 5 -8 11 -8 5 0 7 5 3 11 -4 7 -1 10 6 7 16 -5 23 -45 10 -53 -13 -8 -13
-25 1 -25 5 0 8 4 4 9 -3 6 3 15 14 20 14 8 20 7 25 -4 3 -8 10 -15 16 -15 6
0 -3 18 -21 39 -18 23 -28 45 -24 51 6 9 -35 11 -169 9 -171 -4 -176 -3 -176
16 0 14 -5 10 -18 -15 -9 -19 -14 -36 -10 -38 15 -7 8 -24 -7 -18 -11 4 -15
-2 -16 -22 -1 -17 -5 -7 -12 26 -5 28 -15 52 -21 52 -6 0 -24 -35 -40 -78 -16
-42 -44 -111 -63 -152 l-34 -75 -15 34 c-18 42 -18 51 1 51 8 0 15 4 15 10 0
5 -3 9 -7 9 -26 -4 -43 4 -49 24 -4 12 -17 45 -30 74 -25 53 -29 78 -16 86 4
2 1 2 -5 1 -7 -2 -13 1 -13 6 0 6 -5 10 -10 10 -21 0 -36 -24 -32 -53 4 -27 3
-28 -17 -17 -14 7 -20 17 -17 26 3 8 2 13 -3 9 -5 -3 -17 2 -25 11 -14 13 -16
13 -16 1 0 -9 -6 -18 -12 -20 -10 -4 -10 -6 0 -6 14 -1 16 -37 2 -46 -11 -7
-14 0 -25 49 -5 25 -7 27 -18 12 -12 -16 -13 -15 -14 3 -1 14 4 21 16 21 10 0
18 7 18 16 0 12 -9 15 -39 12 -27 -2 -37 0 -34 9 4 8 -6 8 -36 -3 -23 -8 -57
-12 -77 -9 -27 4 -31 3 -16 -4 14 -7 -20 -10 -107 -10 -122 -1 -128 0 -128 19
0 11 -4 20 -10 20 -5 0 -10 -7 -10 -15 0 -13 -4 -14 -20 -5 -14 7 -20 7 -20 0
0 -5 -5 -10 -11 -10 -6 0 -8 7 -5 16 4 10 1 14 -9 12 -8 -2 -30 -32 -47 -68
-18 -36 -38 -65 -45 -65 -7 0 -17 -5 -24 -12 -10 -10 -6 -15 16 -23 27 -10 27
-11 9 -33 -38 -45 -54 -48 -54 -11 0 14 -4 23 -10 19 -22 -14 -1 63 24 88 l26
26 6 -24 c3 -14 10 -22 15 -19 11 6 12 41 2 47 -5 2 -3 3 4 1 14 -3 37 50 30
68 -3 7 -6 3 -6 -8 -1 -23 -27 -51 -38 -41 -3 4 2 18 11 32 9 14 12 25 7 25
-5 0 -12 -4 -16 -10 -3 -5 -12 -7 -19 -4 -8 3 -16 -4 -19 -16 -6 -25 -29 -18
-25 7 2 9 -3 18 -10 20 -10 4 -12 -60 -12 -310z m1272 131 c4 -179 2 -198 -24
-198 -22 0 -78 54 -78 75 0 15 42 28 50 16 3 -5 11 -3 18 5 11 12 9 18 -11 38
-17 17 -21 28 -15 40 12 21 0 20 -25 -1 -20 -17 -20 -17 -13 2 5 11 11 29 13
40 5 20 5 20 -10 0 -18 -23 -32 -15 -23 13 4 13 19 22 41 26 19 4 37 12 41 18
5 8 1 9 -12 4 -32 -13 -38 -12 -42 7 -2 13 5 19 27 23 17 4 28 10 25 15 -3 5
4 9 15 9 19 0 20 -8 23 -132z m-922 97 c0 -9 -9 -33 -20 -54 -10 -21 -16 -42
-12 -45 3 -4 12 8 19 26 11 30 12 27 10 -44 -1 -43 -5 -78 -8 -78 -3 0 -11 12
-18 26 -6 15 -14 24 -17 22 -8 -9 15 -58 31 -64 11 -5 15 -22 15 -65 0 -53 -2
-59 -21 -59 -11 0 -18 -4 -14 -10 3 -5 13 -7 23 -4 10 3 8 0 -4 -7 -20 -10
-45 -78 -46 -124 0 -35 -8 -66 -16 -61 -4 2 -38 6 -74 7 -50 3 -64 6 -57 15 6
8 6 14 0 18 -5 3 -7 15 -4 26 3 11 8 18 12 16 3 -2 12 2 18 10 8 8 9 15 3 19
-7 4 -6 13 1 26 6 12 8 23 5 27 -3 3 -6 0 -6 -6 0 -6 -13 -10 -30 -9 -24 2
-30 6 -28 22 4 26 55 45 69 25 8 -13 10 -13 18 -1 5 8 7 19 5 26 -3 6 4 22 16
35 11 13 20 30 19 39 0 12 -3 11 -9 -4 -8 -19 -9 -19 -9 -1 -1 11 -4 17 -7 13
-3 -3 -19 7 -34 23 -29 30 -42 30 -34 2 4 -11 1 -10 -7 3 -12 19 -13 18 -25
-10 l-13 -30 -1 28 c0 21 6 30 20 34 16 4 18 9 9 24 -7 14 -6 19 4 19 7 0 18
-5 24 -11 7 -7 15 -5 27 6 9 9 16 12 16 6 0 -5 -5 -13 -11 -17 -8 -4 -7 -9 2
-15 22 -14 26 -11 38 22 14 40 14 39 -1 34 -9 -4 -14 12 -16 55 -2 39 1 60 8
60 7 0 9 -12 5 -34 -4 -21 -2 -36 5 -41 17 -10 20 -3 22 48 l2 47 48 0 c37 0
48 -4 48 -15z m190 -12 c0 -26 -1 -26 -16 -7 -15 19 -15 18 -11 -3 4 -16 0
-23 -11 -23 -13 0 -13 -2 2 -13 20 -15 18 -54 -3 -49 -8 2 -10 -4 -6 -17 4
-14 0 -21 -14 -26 -11 -3 -30 -18 -41 -32 -11 -14 -22 -24 -24 -22 -8 8 6 59
15 53 11 -7 12 -8 -6 50 -8 27 -15 64 -15 83 l0 33 65 0 c64 0 65 0 65 -27z
m57 -225 c-2 -88 -3 -93 -24 -96 -17 -2 -23 2 -24 15 0 13 -4 10 -13 -10 -7
-16 -19 -33 -27 -38 -10 -7 -6 -9 16 -7 23 2 30 -1 33 -17 3 -16 1 -18 -9 -7
-18 17 -39 15 -39 -4 0 -8 -5 -12 -10 -9 -6 4 -8 11 -5 16 10 15 -7 10 -28 -8
-11 -10 -17 -12 -13 -6 4 7 3 20 -2 29 -7 13 -14 11 -43 -18 -27 -26 -34 -40
-32 -63 4 -40 -5 -77 -17 -70 -6 3 -10 -1 -10 -10 0 -9 -7 -30 -17 -48 -14
-29 -17 -30 -23 -12 -4 11 -4 21 1 23 5 2 11 19 15 38 3 19 10 37 15 40 5 3 9
10 9 16 0 6 -9 3 -21 -8 -20 -18 -20 -18 -15 11 13 70 18 81 49 99 17 11 34
20 37 21 24 8 52 24 42 24 -7 1 -10 6 -7 11 3 6 1 10 -4 10 -20 0 -11 16 20
34 16 10 36 15 43 13 8 -3 19 0 25 6 8 8 14 8 23 -1 25 -25 39 -13 37 31 -1
38 8 87 17 87 2 0 2 -42 1 -92z m574 -138 c6 0 9 -16 7 -36 -2 -23 2 -39 10
-41 6 -3 12 3 12 13 0 12 3 15 10 8 6 -6 8 -18 4 -27 -4 -12 -11 -14 -24 -7
-13 7 -21 5 -32 -8 -20 -24 -17 -36 13 -65 16 -14 24 -29 19 -36 -4 -7 -5 -23
-2 -37 4 -23 2 -25 -24 -19 -24 4 -25 4 -8 -4 22 -10 56 -55 48 -64 -3 -3 -13
-3 -22 1 -15 5 -15 4 -3 -11 11 -14 11 -17 0 -17 -9 0 -10 -3 -3 -8 16 -10 11
-81 -6 -92 -13 -8 -12 -10 3 -10 12 0 17 -8 17 -26 0 -14 -4 -23 -9 -20 -5 3
-11 -4 -14 -15 -6 -23 1 -51 12 -45 3 2 7 -7 7 -21 2 -17 -2 -23 -13 -19 -8 3
-11 1 -8 -5 4 -6 -1 -19 -11 -30 -18 -20 -18 -20 10 -15 15 3 34 11 43 17 8 7
23 13 34 14 23 2 54 -29 44 -44 -3 -6 0 -14 9 -17 19 -7 18 -63 -2 -86 -20
-23 -28 -23 -35 2 -3 13 -1 18 6 13 7 -4 8 0 4 11 -4 10 -7 22 -7 28 0 5 -8 8
-17 6 -10 -2 -24 3 -31 12 -10 13 -11 13 -7 0 5 -17 -59 -61 -96 -67 -13 -2
-27 -8 -34 -13 -15 -12 -48 -6 -53 10 -3 9 2 11 17 7 16 -4 21 -1 21 14 0 21
-11 24 -27 8 -16 -16 -43 -4 -43 19 0 23 34 26 65 6 16 -10 25 -12 30 -5 3 6
-2 11 -12 11 -11 0 -23 4 -28 9 -6 4 -25 11 -43 15 -25 4 -31 3 -26 -7 6 -9 5
-9 -7 0 -12 10 -22 8 -48 -8 -40 -24 -56 -15 -21 11 l25 19 -27 -7 c-15 -4
-28 -10 -28 -14 0 -5 -8 -16 -17 -26 -17 -17 -19 -17 -31 1 -23 31 -7 78 36
107 20 14 52 40 71 58 22 22 41 32 53 29 16 -5 18 0 17 31 -1 21 2 46 6 57 5
11 5 17 0 13 -4 -4 -14 0 -22 10 -9 11 -12 11 -7 2 5 -12 4 -13 -6 -3 -11 10
-11 15 -1 27 7 8 10 19 7 24 -3 5 1 18 9 28 15 19 15 19 30 0 8 -11 15 -15 15
-9 0 7 -4 14 -9 17 -7 5 -8 29 -2 57 0 4 11 9 24 13 17 5 19 8 8 15 -15 10 -5
35 10 25 6 -3 18 4 28 15 10 12 23 21 30 21 6 0 11 5 11 10 0 6 -2 10 -4 10
-2 0 -12 3 -22 7 -10 3 -15 2 -12 -3 3 -5 0 -15 -8 -21 -7 -7 -15 -9 -19 -4
-3 5 1 12 7 14 8 3 6 6 -5 6 -10 1 -15 5 -12 11 3 5 -6 12 -20 16 -19 5 -25
12 -25 35 0 17 7 32 18 37 23 13 66 -3 56 -20 -6 -10 -4 -11 7 0 7 6 22 12 34
12 15 0 17 2 6 9 -8 5 -21 7 -30 4 -10 -3 -12 -2 -5 4 6 4 10 20 10 35 -1 14
2 24 6 22 4 -3 8 -12 8 -20 0 -10 5 -12 13 -8 8 5 8 2 -2 -9 -18 -22 2 -22 25
0 11 11 13 18 5 21 -6 2 -10 13 -10 25 1 17 2 18 6 5 2 -10 9 -18 14 -18z
m-481 -230 c16 -16 22 -18 26 -6 3 8 13 12 25 9 24 -7 63 -69 53 -85 -5 -7 -2
-9 7 -6 8 3 23 0 33 -8 17 -12 17 -14 4 -19 -9 -4 -22 -5 -29 -4 -22 4 -109
-11 -109 -19 0 -18 -63 -44 -91 -38 -27 5 -28 4 -15 -9 8 -8 27 -15 43 -15 21
-1 24 -3 13 -9 -17 -11 -73 -15 -149 -13 -43 2 -52 5 -47 18 3 8 2 12 -3 9 -5
-3 -11 2 -13 12 -2 10 -13 17 -30 17 -14 1 -24 -2 -22 -6 3 -4 11 -8 19 -8 23
0 26 -28 3 -36 -15 -4 -26 -1 -35 12 -18 25 -17 4 2 -22 8 -12 12 -24 9 -27
-7 -6 53 -27 80 -27 17 0 18 -2 6 -10 -12 -8 -10 -10 8 -10 33 0 25 -31 -10
-41 -31 -8 -52 9 -42 35 3 9 2 16 -4 16 -6 0 -12 -6 -15 -12 -2 -7 -11 1 -20
18 -9 17 -13 34 -10 38 4 3 2 6 -4 6 -6 0 -18 19 -28 42 -16 40 -16 43 2 55
10 7 27 21 37 30 18 14 20 14 33 -3 12 -17 13 -16 11 16 -3 32 -1 35 24 33 19
-1 25 2 22 11 -5 14 31 46 52 46 7 0 15 -16 18 -35 7 -35 5 -51 -4 -49 -57 14
-64 15 -54 4 6 -6 18 -13 25 -14 8 -2 22 -7 32 -11 27 -11 217 1 231 15 8 9
-1 10 -38 5 -46 -7 -48 -7 -37 13 6 11 11 29 10 39 0 10 -3 13 -6 6 -2 -7 -9
-13 -14 -13 -5 0 -9 6 -9 13 0 6 -4 18 -9 26 -8 12 -12 12 -25 2 -16 -13 -76
-7 -76 8 0 29 91 30 120 1z m190 -150 c0 -3 -5 -11 -12 -18 -20 -20 -2 -24 31
-8 45 24 52 21 39 -16 -6 -18 -14 -35 -18 -38 -4 -3 -11 -14 -17 -24 -12 -21
-53 -30 -53 -12 0 6 -6 0 -13 -14 -8 -14 -9 -28 -4 -31 5 -4 -10 -21 -32 -40
-26 -20 -40 -38 -36 -47 4 -12 3 -12 -9 -3 -12 10 -16 8 -21 -9 -3 -11 -10
-18 -15 -15 -5 3 -11 -3 -14 -12 -3 -11 -4 -8 -3 7 3 37 -28 38 -48 1 -18 -36
-18 -36 -51 -15 -13 9 -34 17 -44 18 -11 0 -20 4 -20 9 0 4 0 14 0 22 0 8 6
15 13 15 8 0 25 9 38 20 58 48 98 72 107 66 5 -3 16 4 25 15 9 10 25 19 35 19
10 0 27 7 38 15 25 19 15 19 -31 0 -36 -16 -37 -16 -30 7 6 21 4 20 -18 -6
-15 -18 -28 -26 -36 -22 -8 5 -14 0 -18 -13 -3 -12 -12 -21 -19 -21 -8 0 -14
-4 -14 -10 0 -5 -9 -10 -19 -10 -11 0 -21 -5 -23 -11 -2 -6 -26 -20 -53 -30
l-50 -19 30 26 c17 14 25 23 18 20 -10 -6 -30 31 -21 38 1 2 39 16 83 31 44
16 96 40 115 54 34 25 70 37 70 24 0 -3 -8 -15 -17 -26 -17 -20 -17 -20 2 -13
11 4 29 9 39 12 11 2 27 11 35 21 15 16 15 16 -1 4 -22 -16 -23 -8 -3 23 14
20 45 32 45 16z m566 -495 c-9 -14 -12 -25 -6 -25 6 0 13 7 16 15 4 8 10 12
16 9 5 -3 4 -12 -3 -20 -10 -12 -9 -13 6 -8 13 5 16 4 11 -4 -4 -7 -2 -12 6
-12 9 0 9 -3 -2 -10 -20 -13 -33 -13 -25 0 4 6 -7 10 -27 9 -32 0 -32 -1 -8
-10 24 -10 24 -11 6 -25 -11 -8 -23 -14 -28 -14 -4 0 -8 -9 -8 -21 0 -11 5
-17 10 -14 6 3 10 1 10 -5 0 -6 -10 -8 -26 -4 -20 5 -25 3 -22 -6 2 -8 -4 -22
-14 -32 -9 -9 -15 -24 -12 -33 5 -11 2 -13 -10 -9 -8 3 -18 14 -21 24 -3 10
-19 22 -35 25 -17 4 -30 10 -30 15 0 4 -20 20 -45 35 -45 26 -51 45 -14 45 13
0 19 7 20 23 l0 22 9 -22 c5 -13 15 -24 22 -24 24 -3 88 -5 88 -3 0 2 -8 10
-17 19 -12 13 -14 21 -6 34 13 20 38 21 37 1 -1 -10 8 -15 28 -14 46 2 47 3
43 24 -3 18 15 34 44 39 2 1 -4 -10 -13 -24z m-602 -251 c9 -3 14 -10 11 -14
-3 -5 11 -4 31 1 25 7 39 7 49 -1 10 -8 16 -7 24 7 9 17 10 17 17 0 4 -11 13
-16 24 -12 9 3 23 -1 30 -10 13 -16 40 -21 40 -7 0 9 92 8 108 -2 11 -7 72 -5
72 3 0 2 -8 10 -17 17 -16 12 -16 13 -2 14 22 0 88 -29 69 -30 -10 -1 -11 -3
-3 -6 7 -3 21 0 33 6 16 9 22 8 27 -6 7 -19 -15 -36 -39 -30 -10 2 -23 -2 -29
-10 -10 -12 -15 -12 -31 2 -17 16 -19 16 -32 -1 -9 -12 -20 -16 -35 -12 -13 3
-24 0 -27 -6 -3 -8 -29 -11 -82 -8 -120 6 -153 4 -166 -9 -8 -9 -4 -11 20 -6
16 4 41 2 55 -3 21 -8 17 -10 -24 -10 -27 -1 -57 4 -68 10 -15 7 -24 7 -34 -1
-21 -17 -83 5 -118 42 l-28 30 7 -28 c4 -15 13 -39 20 -53 14 -27 4 -58 -22
-68 -7 -3 -11 -9 -8 -14 3 -5 0 -17 -6 -26 -10 -17 -10 -16 -9 2 3 37 -1 43
-21 38 -11 -3 -17 -9 -14 -14 3 -5 -2 -9 -10 -9 -38 0 -7 27 38 34 20 3 62 36
45 36 -9 0 -19 -3 -23 -7 -10 -11 -36 -12 -36 -2 0 5 6 9 13 9 6 0 18 4 26 9
11 7 11 13 -3 32 -27 39 -19 99 14 99 29 0 50 -11 43 -23 -4 -6 2 -8 15 -5 12
4 22 2 22 -4 0 -5 5 -6 11 -2 6 3 9 17 6 30 -5 27 -5 26 17 18z m-278 -249
c-3 -9 0 -15 9 -15 8 0 15 -3 15 -7 0 -5 14 -9 32 -10 38 -3 98 -30 98 -44 0
-6 4 -8 8 -5 5 3 26 -11 46 -30 29 -28 35 -38 26 -49 -9 -11 -5 -17 19 -30 17
-8 31 -17 31 -19 0 -10 -72 2 -83 14 -6 8 -8 12 -3 8 6 -5 14 -8 20 -8 5 0 1
6 -9 14 -11 8 -23 12 -28 9 -8 -5 -82 49 -155 114 -32 28 -42 43 -37 56 4 9 9
17 12 17 3 0 3 -7 -1 -15z"/>
<path d="M301 326 c-8 -9 -8 -16 -2 -20 6 -4 7 -14 4 -23 -4 -11 6 -27 33 -50
28 -23 34 -33 22 -33 -10 0 -18 -6 -18 -14 0 -23 -15 -27 -51 -14 -33 12 -34
12 -9 18 22 6 20 8 -17 14 -82 15 -77 -18 9 -59 27 -13 46 -18 45 -11 -3 15
44 9 56 -7 6 -8 7 -7 4 5 -3 9 -3 18 0 21 3 3 5 36 5 72 0 55 -4 70 -23 91
-26 27 -41 30 -58 10z"/>
</g>
</svg>
