<?xml version="1.0" standalone="no"?>
<!DOCTYPE svg PUBLIC "-//W3C//DTD SVG 20010904//EN"
 "http://www.w3.org/TR/2001/REC-SVG-20010904/DTD/svg10.dtd">
<svg version="1.0" xmlns="http://www.w3.org/2000/svg"
 width="194.000000pt" height="259.000000pt" viewBox="0 0 194.000000 259.000000"
 preserveAspectRatio="xMidYMid meet">

<g transform="translate(0.000000,259.000000) scale(0.100000,-0.100000)"
fill="#000000" stroke="none">
<path d="M0 1295 l0 -1295 970 0 970 0 0 1295 0 1295 -970 0 -970 0 0 -1295z
m1860 0 l0 -1215 -890 0 -890 0 0 1215 0 1215 890 0 890 0 0 -1215z"/>
<path d="M90 2187 c1 -234 4 -317 13 -321 9 -3 9 -7 -1 -14 -10 -7 -12 -62
-10 -258 3 -242 4 -250 26 -281 13 -18 19 -33 13 -33 -5 0 -13 5 -16 10 -10
17 -25 11 -25 -9 0 -10 7 -21 15 -25 8 -3 15 -12 15 -21 0 -30 19 -14 36 30 9
25 22 44 28 42 6 -2 18 -22 26 -45 8 -23 20 -42 27 -42 18 0 16 42 -2 66 -8
10 -15 34 -15 52 0 17 -4 32 -9 32 -6 0 -8 9 -6 20 2 11 -1 20 -7 20 -7 0 -9
-16 -6 -44 5 -37 3 -43 -11 -39 -21 5 -36 29 -46 71 -6 29 -5 32 19 32 30 0
42 16 27 34 -9 10 -7 16 6 21 10 5 21 8 25 7 3 -1 11 5 17 12 9 11 4 13 -29 9
-31 -4 -40 -2 -40 10 0 9 8 16 18 16 40 1 49 5 48 20 -1 9 5 16 12 17 6 1 20
2 30 3 15 2 14 3 -3 10 -11 5 -23 7 -26 5 -4 -2 -9 6 -12 17 -4 15 -2 19 9 15
8 -3 14 -1 14 4 0 6 -10 10 -23 10 -15 0 -24 6 -24 15 0 9 6 14 14 11 10 -4
10 -1 1 14 -9 14 -16 16 -29 9 -23 -12 -26 -12 -26 5 0 8 6 12 12 9 17 -6 45
25 38 42 -4 11 -1 13 13 8 16 -5 17 -4 8 8 -22 27 -27 59 -10 59 9 0 16 7 16
15 0 8 9 15 19 15 21 0 38 -49 25 -72 -5 -10 -4 -10 6 -1 11 10 11 20 3 48
l-11 35 38 -2 c29 -2 36 -6 28 -15 -6 -7 -7 -13 -3 -13 4 0 0 -12 -10 -26 -9
-15 -13 -24 -7 -20 5 3 13 -1 16 -10 8 -22 9 -20 -24 -34 -17 -7 -30 -16 -30
-21 0 -5 11 -2 25 7 31 20 32 10 4 -36 -12 -19 -15 -29 -7 -22 20 16 30 4 17
-20 -9 -18 -8 -18 10 -9 18 10 20 9 14 -6 -5 -15 -3 -15 10 2 9 11 17 26 17
33 0 22 19 13 26 -13 5 -19 0 -30 -17 -45 -13 -10 -18 -19 -11 -20 8 0 9 -5 3
-17 -5 -10 -14 -29 -20 -43 -10 -23 -11 -23 -7 -2 2 12 0 20 -5 16 -5 -3 -9
-12 -9 -20 0 -8 -6 -14 -14 -14 -8 0 -18 -5 -22 -12 -5 -7 -3 -8 6 -3 8 5 11
3 8 -6 -3 -8 -11 -13 -17 -11 -7 1 -10 -2 -6 -8 3 -5 1 -10 -6 -10 -6 0 -10
10 -7 23 3 17 0 23 -15 23 -15 0 -18 -6 -15 -34 4 -31 2 -33 -19 -29 -13 2
-23 0 -23 -4 0 -5 15 -9 34 -9 29 0 33 -3 29 -20 -4 -15 0 -20 16 -20 19 0 20
3 11 20 -9 17 -8 20 10 20 12 0 19 4 15 10 -3 5 -13 6 -23 3 -19 -7 -17 -4 13
17 11 8 17 11 13 6 -13 -16 21 -36 60 -36 26 0 42 -5 46 -15 3 -8 1 -15 -4
-15 -14 0 -12 -38 2 -42 21 -7 1 -37 -21 -31 -12 3 -21 1 -21 -6 0 -6 14 -11
31 -11 28 0 30 -2 27 -32 -2 -18 -7 -32 -13 -30 -10 2 -11 6 -14 37 0 8 -6 15
-12 15 -7 0 -10 -17 -7 -45 3 -40 1 -45 -17 -45 -18 0 -20 6 -17 48 2 34 0 43
-7 32 -5 -8 -13 -11 -17 -7 -4 4 -13 -1 -20 -11 -11 -14 -9 -21 8 -39 19 -20
19 -23 5 -23 -9 0 -17 -7 -17 -16 0 -9 5 -12 12 -8 7 5 41 7 77 6 l64 -2 -7
40 c-9 55 6 80 48 80 27 0 35 -6 49 -32 16 -33 16 -33 16 -6 1 14 -5 29 -11
31 -7 3 -3 6 10 6 12 1 22 5 22 10 0 13 -45 22 -78 16 -26 -5 -26 -5 -4 6 12
7 22 17 21 23 -3 23 1 36 12 36 6 0 9 -6 6 -14 -8 -20 3 -27 23 -16 28 15 59
2 52 -23 -4 -18 -3 -20 9 -11 19 15 58 24 64 15 2 -5 -12 -22 -32 -40 -21 -19
-32 -35 -26 -39 5 -4 10 -14 10 -24 0 -13 -5 -14 -23 -8 -13 5 -25 6 -28 2 -8
-13 22 -44 41 -42 10 1 20 1 23 0 17 -8 109 -7 105 1 -4 5 -1 9 5 9 6 0 8 6 5
13 -4 6 0 4 8 -5 8 -10 17 -15 20 -12 3 3 4 -2 1 -13 -5 -22 15 -55 23 -35 2
7 11 19 20 27 13 13 12 15 -9 15 -18 0 -20 2 -8 10 8 5 11 10 5 10 -5 0 -3 5
5 10 8 5 15 15 16 22 3 41 4 41 29 18 14 -13 25 -20 25 -15 0 5 5 4 12 -3 7
-7 20 -12 30 -12 11 0 18 -7 18 -20 0 -23 -10 -26 -28 -8 -7 7 -12 9 -12 5 0
-13 44 -47 62 -47 10 0 18 -7 18 -15 0 -20 37 -39 43 -22 2 6 0 20 -5 30 -7
13 -4 17 12 17 11 0 20 5 20 10 0 6 6 10 13 10 7 0 13 -17 13 -46 2 -58 23
-83 48 -59 23 23 22 92 -1 98 -14 3 -11 7 11 16 23 9 31 9 38 -1 6 -10 11 -9
19 5 12 20 30 22 48 5 6 -7 17 -13 23 -13 24 0 17 -24 -16 -53 -29 -25 -32
-32 -18 -35 16 -4 16 -5 0 -6 -9 0 -19 -9 -22 -19 -4 -10 -22 -24 -42 -31 -35
-13 -36 -14 -32 -59 3 -41 1 -45 -19 -47 -26 -2 -30 21 -12 58 10 21 10 21 -5
3 -9 -11 -16 -16 -17 -10 0 5 -5 -2 -10 -15 -13 -33 -22 -20 -14 22 6 28 11
34 26 30 10 -3 19 -1 19 5 0 20 -42 8 -51 -15 -5 -13 -13 -23 -19 -23 -6 0 -6
-9 0 -25 6 -16 6 -25 0 -25 -6 0 -10 8 -11 18 0 9 -3 12 -5 5 -9 -20 -34 -2
-34 24 0 17 4 23 14 20 8 -3 16 2 19 14 3 11 11 18 17 17 7 -2 15 3 17 10 8
22 -72 14 -122 -12 -39 -21 -121 -78 -88 -62 7 4 6 -5 -4 -24 -14 -29 -26 -37
-80 -54 -20 -6 -21 -5 -10 18 6 13 14 24 17 24 19 -1 21 5 5 22 -10 11 -21 17
-25 15 -5 -3 -6 3 -3 14 6 24 43 16 43 -10 0 -17 30 -29 30 -11 0 4 16 25 35
46 19 22 32 42 30 46 -2 4 6 6 18 6 13 -1 22 5 22 14 0 20 -36 26 -50 9 -20
-26 -85 -54 -71 -31 2 4 -7 12 -20 19 -13 6 -22 7 -18 2 3 -5 -3 -9 -13 -9
-15 0 -18 7 -14 47 3 43 2 46 -13 34 -10 -9 -16 -10 -16 -2 0 6 -7 11 -15 11
-23 0 -18 -16 10 -28 25 -11 30 -27 20 -54 -7 -18 -61 -12 -69 8 -8 21 11 27
23 7 5 -10 13 -14 18 -10 10 11 -27 38 -40 30 -6 -3 -7 -1 -3 5 4 7 2 20 -4
29 -8 14 -10 8 -8 -29 l3 -48 -45 0 c-25 0 -40 -4 -34 -8 6 -4 14 -19 17 -33
6 -22 3 -25 -16 -24 -18 1 -22 8 -22 36 0 19 3 44 7 57 4 12 3 22 -2 22 -5 0
-12 -11 -16 -25 -9 -35 -19 -31 -37 13 -13 33 -15 34 -16 12 -1 -15 4 -31 11
-38 9 -9 8 -12 -8 -12 -17 0 -19 6 -16 45 3 37 1 45 -13 45 -14 0 -16 -8 -13
-45 3 -40 1 -45 -17 -45 -18 0 -20 6 -17 48 2 33 0 43 -7 33 -8 -13 -12 -13
-26 -1 -16 13 -17 11 -14 -33 4 -42 2 -47 -16 -47 -18 0 -20 5 -16 47 3 43 2
46 -13 34 -12 -10 -14 -23 -10 -55 4 -22 11 -46 15 -52 5 -6 7 -14 4 -18 -3
-3 1 -2 7 4 19 16 27 12 21 -10 -4 -14 0 -20 11 -20 9 0 16 8 16 20 0 12 7 20
18 20 14 0 15 -2 2 -10 -13 -9 -13 -10 0 -10 13 0 13 -2 1 -9 -11 -7 -10 -10
5 -14 10 -2 0 -5 -23 -6 -28 -1 -43 3 -43 12 0 8 -3 7 -10 -3 -11 -18 -12 -17
-34 53 -14 42 -24 57 -38 57 -16 0 -17 -3 -8 -20 9 -17 8 -20 -13 -20 -21 0
-23 4 -20 33 2 17 0 25 -3 17 -23 -53 -87 -70 -104 -26 -21 56 28 102 76 71
20 -13 23 -13 18 0 -5 11 2 13 38 9 31 -3 39 -2 28 6 -8 5 -38 10 -67 10 -42
0 -51 3 -47 15 4 9 0 15 -9 15 -20 0 -33 -20 -15 -21 7 -1 0 -5 -17 -8 -21 -6
-34 -3 -42 8 -11 12 -13 8 -13 -28 0 -37 6 -48 55 -98 30 -31 55 -51 55 -45 0
7 22 10 63 9 55 -2 62 -4 65 -24 4 -24 32 -54 32 -34 0 7 5 9 10 6 17 -10 11
-53 -8 -58 -16 -4 -16 -5 1 -6 9 0 17 -6 17 -12 0 -5 4 -7 10 -4 5 3 8 0 5 -7
-3 -7 4 -26 15 -43 11 -16 20 -24 20 -17 0 27 15 10 16 -19 1 -16 8 -35 17
-42 8 -7 17 -25 21 -42 3 -16 10 -47 15 -68 7 -29 6 -41 -6 -52 -9 -10 -10
-15 -3 -15 7 0 2 -18 -13 -44 -16 -29 -23 -54 -20 -78 3 -29 -2 -39 -29 -64
-27 -23 -30 -29 -15 -32 24 -5 24 -62 0 -62 -11 0 -14 -3 -7 -8 6 -4 13 -20
16 -36 5 -22 0 -34 -16 -49 -11 -10 -15 -16 -8 -12 9 5 11 -3 6 -32 -4 -29 -2
-42 10 -52 11 -10 13 -18 6 -31 -7 -13 -6 -20 6 -24 30 -12 93 -6 108 10 9 8
20 12 26 9 5 -3 10 1 10 9 0 8 10 18 21 21 17 6 19 9 8 16 -12 8 -12 10 0 18
13 8 74 -8 106 -29 6 -3 46 -6 90 -5 48 0 85 -5 93 -12 13 -13 17 -27 4 -19
-4 2 -14 1 -21 -3 -17 -11 141 -22 182 -13 32 7 32 7 -13 13 l-45 6 52 1 c31
1 57 -3 65 -11 18 -18 228 -18 250 1 9 7 24 10 34 6 12 -4 15 -3 7 3 -18 13 8
41 43 45 23 2 28 -1 26 -15 -2 -12 4 -17 19 -17 16 0 20 -5 16 -19 -4 -17 2
-18 77 -17 44 1 87 5 94 9 6 5 12 6 12 2 0 -3 9 -1 20 5 34 18 25 54 -21 85
-23 15 -38 22 -35 17 3 -6 2 -13 -3 -17 -11 -6 -34 29 -25 38 3 3 -10 22 -30
41 -30 31 -35 41 -30 69 3 17 11 42 17 55 8 17 8 25 0 30 -8 5 -6 38 8 117 10
61 21 121 25 134 7 23 8 23 21 6 12 -17 13 -17 13 9 0 27 13 46 70 105 48 49
82 100 74 112 -4 8 -3 9 4 5 8 -4 16 4 22 21 6 15 15 36 20 46 6 10 10 82 9
166 l0 148 -37 1 c-20 0 -31 -2 -24 -5 6 -2 9 -9 6 -14 -3 -6 -11 -3 -18 6
-10 14 -13 14 -32 -3 -16 -15 -22 -16 -32 -6 -10 11 -8 16 10 25 12 7 31 12
43 13 16 1 20 8 21 33 0 42 12 53 30 29 16 -22 27 -16 31 19 4 24 -12 36 -19
14 -2 -5 -11 -7 -21 -4 -9 4 -14 11 -11 16 3 5 9 7 14 4 5 -3 11 -1 15 5 4 6
-5 10 -19 10 -14 0 -26 -3 -26 -8 0 -13 -123 -8 -127 5 -3 8 16 13 64 15 66 3
67 3 33 14 -20 6 -40 7 -46 2 -15 -11 -72 -13 -104 -3 -14 4 -41 21 -60 36
-19 16 -38 29 -43 29 -19 0 -55 33 -50 45 4 11 11 10 34 -7 37 -28 53 -13 17
16 -28 22 -38 56 -17 56 6 0 9 -6 6 -14 -6 -15 38 -40 54 -30 6 3 13 -3 16
-15 4 -15 13 -21 34 -21 29 0 39 -14 17 -23 -7 -3 -4 -5 7 -4 11 0 35 -3 53
-7 21 -5 32 -4 32 3 0 6 5 11 11 11 22 0 62 41 65 65 1 14 -2 25 -7 25 -5 0
-9 -10 -9 -21 0 -16 -3 -19 -12 -12 -7 6 -32 9 -56 8 -43 -3 -112 13 -112 25
0 3 32 6 71 7 40 1 74 5 78 11 7 10 40 10 58 -1 6 -4 15 -2 19 4 4 7 3 9 -3 6
-6 -4 -9 5 -7 24 3 27 2 30 -11 19 -12 -10 -15 -10 -15 1 -1 10 -4 9 -11 -3
-5 -9 -16 -15 -23 -12 -8 3 -17 1 -21 -5 -3 -6 -21 -11 -38 -11 -32 0 -32 1
13 21 25 11 55 30 67 41 l22 21 31 -33 30 -32 -19 -32 -20 -31 25 0 25 0 -2
203 c-1 111 -5 202 -10 202 -5 0 -10 -15 -10 -32 -2 -30 -2 -31 -6 -6 -2 15 1
37 7 49 10 17 9 20 -1 17 -8 -3 -20 1 -27 9 -7 7 -22 13 -33 13 -11 0 -22 6
-24 13 -3 6 -21 13 -40 15 -27 1 -37 -2 -43 -17 -6 -16 -9 -17 -20 -5 -10 11
-10 14 0 14 9 0 10 2 2 8 -7 4 -14 16 -17 27 -5 19 -5 19 -6 -1 -1 -19 -4 -20
-52 -10 -44 9 -53 8 -63 -6 -8 -11 -25 -16 -47 -16 -19 1 -28 3 -21 5 6 3 12
9 12 14 0 4 -7 6 -15 3 -12 -5 -15 5 -15 60 l0 66 50 -2 c48 -2 50 -4 50 -31
0 -15 4 -26 10 -22 5 3 7 12 3 20 -4 11 2 15 21 15 19 0 29 -7 36 -26 9 -22
15 -25 50 -23 33 3 45 -1 63 -22 13 -15 37 -28 59 -32 33 -5 37 -3 43 21 l8
27 9 -30 c6 -16 9 -40 9 -53 0 -13 4 -20 9 -17 6 3 10 27 9 53 0 35 -3 42 -9
27 -7 -16 -9 -12 -9 20 -1 26 -4 35 -10 27 -7 -11 -9 -11 -14 2 -4 9 -2 16 3
16 6 0 10 19 11 43 0 37 1 39 10 18 5 -14 7 -31 4 -38 -2 -8 0 -11 5 -8 6 3
10 26 10 51 0 69 -30 111 -45 64 -8 -24 -25 -27 -25 -4 0 10 -6 14 -15 10 -10
-3 -15 1 -15 12 0 15 -2 15 -11 2 -8 -11 -12 -12 -16 -2 -2 6 -8 10 -13 7 -12
-7 5 -60 19 -57 13 3 14 -8 1 -28 -8 -13 -10 -12 -10 3 0 9 -4 17 -9 17 -5 0
-12 9 -16 19 -4 12 -12 18 -21 14 -8 -3 -21 1 -30 8 -12 10 -15 10 -12 -2 2
-8 -4 -13 -13 -11 -11 1 -21 -8 -27 -28 -15 -41 -59 -43 -68 -2 -10 47 -12 48
-13 7 l-2 -40 -16 27 c-22 35 -49 48 -30 15 6 -12 17 -25 22 -29 14 -11 -27
-9 -44 1 -13 8 -12 26 5 83 4 13 1 16 -10 12 -12 -5 -16 0 -16 20 0 25 3 26
53 26 50 0 54 -2 70 -32 l16 -33 -5 31 c-5 24 -2 31 10 31 9 0 16 -4 16 -9 0
-4 5 -8 11 -8 5 0 7 5 3 11 -4 7 -1 10 6 7 16 -5 23 -45 10 -53 -13 -8 -13
-25 1 -25 5 0 8 4 4 9 -3 6 3 15 14 20 14 8 20 7 25 -4 3 -8 10 -15 16 -15 6
0 -3 18 -21 39 -18 23 -28 45 -24 51 6 9 -35 11 -169 9 -171 -4 -176 -3 -176
16 0 14 -5 10 -18 -15 -9 -19 -14 -36 -10 -38 15 -7 8 -24 -7 -18 -11 4 -15
-2 -16 -22 -1 -17 -5 -7 -12 26 -5 28 -15 52 -21 52 -6 0 -24 -35 -40 -78 -16
-42 -44 -111 -63 -152 l-34 -75 -15 34 c-18 42 -18 51 1 51 8 0 15 4 15 10 0
5 -3 9 -7 9 -26 -4 -43 4 -49 24 -4 12 -17 45 -30 74 -25 53 -29 78 -16 86 4
2 1 2 -5 1 -7 -2 -13 1 -13 6 0 6 -5 10 -10 10 -21 0 -36 -24 -32 -53 4 -27 3
-28 -17 -17 -14 7 -20 17 -17 26 3 8 2 13 -3 9 -5 -3 -17 2 -25 11 -14 13 -16
13 -16 1 0 -9 -6 -18 -12 -20 -10 -4 -10 -6 0 -6 14 -1 16 -37 2 -46 -11 -7
-14 0 -25 49 -5 25 -7 27 -18 12 -12 -16 -13 -15 -14 3 -1 14 4 21 16 21 10 0
18 7 18 16 0 12 -9 15 -39 12 -27 -2 -37 0 -34 9 4 8 -6 8 -36 -3 -23 -8 -57
-12 -77 -9 -27 4 -31 3 -16 -4 14 -7 -20 -10 -107 -10 -122 -1 -128 0 -128 19
0 11 -4 20 -10 20 -5 0 -10 -7 -10 -15 0 -13 -4 -14 -20 -5 -14 7 -20 7 -20 0
0 -5 -5 -10 -11 -10 -6 0 -8 7 -5 16 4 10 1 14 -9 12 -8 -2 -30 -32 -47 -68
-18 -36 -38 -65 -45 -65 -7 0 -17 -5 -24 -12 -10 -10 -6 -15 16 -23 27 -10 27
-11 9 -33 -38 -45 -54 -48 -54 -11 0 14 -4 23 -10 19 -22 -14 -1 63 24 88 l26
26 6 -24 c3 -14 10 -22 15 -19 11 6 12 41 2 47 -5 2 -3 3 4 1 14 -3 37 50 30
68 -3 7 -6 3 -6 -8 -1 -23 -27 -51 -38 -41 -3 4 2 18 11 32 9 14 12 25 7 25
-5 0 -12 -4 -16 -10 -3 -5 -12 -7 -19 -4 -8 3 -16 -4 -19 -16 -6 -25 -29 -18
-25 7 2 9 -3 18 -10 20 -10 4 -12 -60 -12 -310z m565 263 c3 -5 1 -10 -4 -10
-6 0 -11 5 -11 10 0 6 2 10 4 10 3 0 8 -4 11 -10z m707 -132 c4 -179 2 -198
-24 -198 -22 0 -78 54 -78 75 0 15 42 28 50 16 3 -5 11 -3 18 5 11 12 9 18
-11 38 -17 17 -21 28 -15 40 12 21 0 20 -25 -1 -20 -17 -20 -17 -13 2 5 11 11
29 13 40 5 20 5 20 -10 0 -18 -23 -32 -15 -23 13 4 13 19 22 41 26 19 4 37 12
41 18 5 8 1 9 -12 4 -32 -13 -38 -12 -42 7 -2 13 5 19 27 23 17 4 28 10 25 15
-3 5 4 9 15 9 19 0 20 -8 23 -132z m-922 97 c0 -9 -9 -33 -20 -54 -10 -21 -16
-42 -12 -45 3 -4 12 8 19 26 11 30 12 27 10 -44 -1 -43 -5 -78 -8 -78 -3 0
-11 12 -18 26 -6 15 -14 24 -17 22 -8 -9 15 -58 31 -64 11 -5 15 -22 15 -65 0
-53 -2 -59 -21 -59 -11 0 -18 -4 -14 -10 3 -5 13 -7 23 -4 10 3 8 0 -4 -7 -20
-10 -45 -78 -46 -124 0 -35 -8 -66 -16 -61 -4 2 -38 6 -74 7 -50 3 -64 6 -57
15 6 8 6 14 0 18 -5 3 -7 15 -4 26 3 11 8 18 12 16 3 -2 12 2 18 10 8 8 9 15
3 19 -7 4 -6 13 1 26 6 12 8 23 5 27 -3 3 -6 0 -6 -6 0 -6 -13 -10 -30 -9 -24
2 -30 6 -28 22 4 26 55 45 69 25 8 -13 10 -13 18 -1 5 8 7 19 5 26 -3 6 4 22
16 35 11 13 20 30 19 39 0 12 -3 11 -9 -4 -8 -19 -9 -19 -9 -1 -1 11 -4 17 -7
13 -3 -3 -19 7 -34 23 -29 30 -42 30 -34 2 4 -11 1 -10 -7 3 -12 19 -13 18
-25 -10 l-13 -30 -1 28 c0 21 6 30 20 34 16 4 18 9 9 24 -7 14 -6 19 4 19 7 0
18 -5 24 -11 7 -7 15 -5 27 6 9 9 16 12 16 6 0 -5 -5 -13 -11 -17 -8 -4 -7 -9
2 -15 22 -14 26 -11 38 22 14 40 14 39 -1 34 -9 -4 -14 12 -16 55 -2 39 1 60
8 60 7 0 9 -12 5 -34 -4 -21 -2 -36 5 -41 17 -10 20 -3 22 48 l2 47 48 0 c37
0 48 -4 48 -15z m190 -12 c0 -26 -1 -26 -16 -7 -15 19 -15 18 -11 -3 4 -16 0
-23 -11 -23 -13 0 -13 -2 2 -13 20 -15 18 -54 -3 -49 -8 2 -10 -4 -6 -17 4
-14 0 -21 -14 -26 -11 -3 -30 -18 -41 -32 -11 -14 -22 -24 -24 -22 -8 8 6 59
15 53 11 -7 12 -8 -6 50 -8 27 -15 64 -15 83 l0 33 65 0 c64 0 65 0 65 -27z
m60 13 c0 -6 -4 -15 -8 -21 -9 -13 -42 -16 -42 -4 0 5 8 10 18 10 16 1 16 2 0
6 -27 7 -22 21 7 21 14 0 25 -6 25 -12z m-418 -44 c3 -9 2 -26 -2 -37 -6 -17
-8 -16 -19 10 l-11 30 5 -35 c4 -28 3 -31 -6 -17 -13 23 -3 67 15 67 8 0 16
-8 18 -18z m592 9 c4 -5 3 -17 0 -26 -5 -13 -8 -14 -15 -3 -5 7 -9 19 -9 26 0
14 16 16 24 3z m-214 -50 c-9 -19 -30 -29 -30 -16 0 7 34 42 38 39 2 -1 -1
-12 -8 -23z m180 9 c0 -5 -4 -10 -9 -10 -6 0 -13 5 -16 10 -3 6 1 10 9 10 9 0
16 -4 16 -10z m-9 -37 c10 -11 10 -14 2 -9 -8 4 -13 1 -13 -8 0 -9 -4 -16 -10
-16 -5 0 -6 7 -3 17 5 12 3 14 -8 8 -12 -8 -12 -6 0 8 7 9 15 17 16 17 1 0 9
-8 16 -17z m30 -6 c-10 -9 -11 -8 -5 6 3 10 9 15 12 12 3 -3 0 -11 -7 -18z
m114 -76 l27 -54 -23 -19 -24 -19 24 11 c19 10 25 9 32 -1 5 -8 7 -20 4 -27
-3 -7 0 -10 5 -7 6 3 10 1 10 -4 0 -16 -61 -7 -74 11 -6 8 -19 17 -29 21 -20
7 -33 34 -22 45 3 4 12 -1 19 -11 7 -9 17 -17 21 -17 4 0 2 7 -5 15 -7 8 -9
15 -6 15 4 0 0 7 -8 16 -22 21 -21 58 0 50 13 -5 15 0 10 36 -4 30 -3 35 3 18
4 -14 20 -49 36 -79z m230 -34 c10 -54 15 -100 12 -103 -12 -12 -45 8 -76 46
-31 38 -31 40 -17 75 8 19 20 35 25 35 6 0 11 11 11 24 0 13 3 32 7 42 6 16 7
16 13 -2 4 -10 15 -63 25 -117z m-322 70 c-3 -20 -9 -37 -13 -37 -7 0 -5 23 5
58 11 33 15 22 8 -21z m754 11 c-3 -8 -6 -5 -6 6 -1 11 2 17 5 13 3 -3 4 -12
1 -19z m-940 -90 c-2 -88 -3 -93 -24 -96 -17 -2 -23 2 -24 15 0 13 -4 10 -13
-10 -7 -16 -19 -33 -27 -38 -10 -7 -6 -9 16 -7 23 2 30 -1 33 -17 3 -16 1 -18
-9 -7 -18 17 -39 15 -39 -4 0 -8 -5 -12 -10 -9 -6 4 -8 11 -5 16 10 15 -7 10
-28 -8 -11 -10 -17 -12 -13 -6 4 7 3 20 -2 29 -7 13 -14 11 -43 -18 -27 -26
-34 -40 -32 -63 4 -40 -5 -77 -17 -70 -6 3 -10 -1 -10 -10 0 -9 -7 -30 -17
-48 -14 -29 -17 -30 -23 -12 -4 11 -4 21 1 23 5 2 11 19 15 38 3 19 10 37 15
40 5 3 9 10 9 16 0 6 -9 3 -21 -8 -20 -18 -20 -18 -15 11 13 70 18 81 49 99
17 11 34 20 37 21 24 8 52 24 42 24 -7 1 -10 6 -7 11 3 6 1 10 -4 10 -20 0
-11 16 20 34 16 10 36 15 43 13 8 -3 19 0 25 6 8 8 14 8 23 -1 25 -25 39 -13
37 31 -1 38 8 87 17 87 2 0 2 -42 1 -92z m129 74 c16 -10 44 -68 37 -75 -3 -4
-15 -1 -27 5 -11 7 -24 11 -28 10 -4 -1 -5 5 -2 13 4 8 1 15 -5 15 -6 0 -11
-6 -11 -14 0 -8 -5 -18 -12 -22 -6 -4 -8 -3 -4 4 3 6 2 13 -4 17 -13 8 -13 45
1 45 6 0 20 -5 32 -12 20 -10 21 -10 8 5 -14 17 -5 23 15 9z m964 -17 c0 -8
-2 -15 -4 -15 -2 0 -6 7 -10 15 -3 8 -1 15 4 15 6 0 10 -7 10 -15z m-1215 -25
c-3 -5 -12 -10 -20 -10 -7 0 -16 -7 -19 -16 -5 -13 -1 -15 19 -10 34 9 32 0
-5 -19 -39 -20 -41 -20 -38 15 1 16 4 27 6 25 3 -2 14 2 26 10 24 17 40 20 31
5z m1195 -31 c0 -11 -4 -18 -10 -14 -5 3 -7 12 -3 20 7 21 13 19 13 -6z
m-1486 -5 c9 -25 7 -72 -4 -79 -5 -3 -10 0 -10 7 0 10 -3 9 -10 -2 -12 -20
-20 -9 -26 36 -2 22 -2 33 2 27 9 -20 24 -15 24 7 0 24 15 27 24 4z m-80 -39
c-9 -27 -11 -28 -29 -22 -15 6 -21 48 -9 60 13 13 44 -18 38 -38z m642 30 c18
-14 18 -14 -8 -15 -16 0 -28 -5 -28 -10 0 -6 11 -8 25 -4 19 5 25 2 25 -10 0
-12 -10 -15 -50 -15 -49 2 -50 2 -49 33 0 17 3 25 6 19 7 -18 23 -16 23 2 0
19 30 19 56 0z m-709 -27 c-3 -8 -6 -5 -6 6 -1 11 2 17 5 13 3 -3 4 -12 1 -19z
m791 -36 c-5 -2 -6 -8 -2 -13 3 -5 -4 -9 -15 -9 -15 0 -21 6 -21 23 0 33 9 38
29 19 9 -9 13 -19 9 -20z m-133 -12 c3 -5 -1 -10 -9 -10 -9 0 -16 5 -16 10 0
6 4 10 9 10 6 0 13 -4 16 -10z m-575 -9 c0 -13 -29 -35 -37 -28 -7 8 15 37 28
37 5 0 9 -4 9 -9z m966 -12 c3 -6 1 -15 -5 -20 -6 -5 -9 -6 -6 -3 3 4 0 13 -6
21 -8 9 -8 13 -1 13 6 0 14 -5 18 -11z m-386 -7 c0 -4 -18 -13 -40 -19 -44
-11 -53 -4 -17 13 27 14 57 17 57 6z m90 -2 c0 -5 -2 -10 -4 -10 -3 0 -8 5
-11 10 -3 6 -1 10 4 10 6 0 11 -4 11 -10z m137 -16 c-9 -9 -28 6 -21 18 4 6
10 6 17 -1 6 -6 8 -13 4 -17z m48 16 c-3 -5 -11 -10 -16 -10 -6 0 -7 5 -4 10
3 6 11 10 16 10 6 0 7 -4 4 -10z m158 3 c-7 -2 -19 -2 -25 0 -7 3 -2 5 12 5
14 0 19 -2 13 -5z m38 -23 c6 0 9 -16 7 -36 -2 -23 2 -39 10 -41 6 -3 12 3 12
13 0 12 3 15 10 8 6 -6 8 -18 4 -27 -4 -12 -11 -14 -24 -7 -13 7 -21 5 -32 -8
-20 -24 -17 -36 13 -65 16 -14 24 -29 19 -36 -4 -7 -5 -23 -2 -37 4 -23 2 -25
-24 -19 -24 4 -25 4 -8 -4 22 -10 56 -55 48 -64 -3 -3 -13 -3 -22 1 -15 5 -15
4 -3 -11 11 -14 11 -17 0 -17 -9 0 -10 -3 -3 -8 16 -10 11 -81 -6 -92 -13 -8
-12 -10 3 -10 12 0 17 -8 17 -26 0 -14 -4 -23 -9 -20 -5 3 -11 -4 -14 -15 -6
-23 1 -51 12 -45 3 2 7 -7 7 -21 2 -17 -2 -23 -13 -19 -8 3 -11 1 -8 -5 4 -6
-1 -19 -11 -30 -18 -20 -18 -20 10 -15 15 3 34 11 43 17 8 7 23 13 34 14 23 2
54 -29 44 -44 -3 -6 0 -14 9 -17 19 -7 18 -63 -2 -86 -20 -23 -28 -23 -35 2
-3 13 -1 18 6 13 7 -4 8 0 4 11 -4 10 -7 22 -7 28 0 5 -8 8 -17 6 -10 -2 -24
3 -31 12 -10 13 -11 13 -7 0 5 -17 -59 -61 -96 -67 -13 -2 -27 -8 -34 -13 -15
-12 -48 -6 -53 10 -3 9 2 11 17 7 16 -4 21 -1 21 14 0 21 -11 24 -27 8 -16
-16 -43 -4 -43 19 0 23 34 26 65 6 16 -10 25 -12 30 -5 3 6 -2 11 -12 11 -11
0 -23 4 -28 9 -6 4 -25 11 -43 15 -25 4 -31 3 -26 -7 6 -9 5 -9 -7 0 -12 10
-22 8 -48 -8 -40 -24 -56 -15 -21 11 l25 19 -27 -7 c-15 -4 -28 -10 -28 -14 0
-5 -8 -16 -17 -26 -17 -17 -19 -17 -31 1 -23 31 -7 78 36 107 20 14 52 40 71
58 22 22 41 32 53 29 16 -5 18 0 17 31 -1 21 2 46 6 57 5 11 5 17 0 13 -4 -4
-14 0 -22 10 -9 11 -12 11 -7 2 5 -12 4 -13 -6 -3 -11 10 -11 15 -1 27 7 8 10
19 7 24 -3 5 1 18 9 28 15 19 15 19 30 0 8 -11 15 -15 15 -9 0 7 -4 14 -9 17
-7 5 -8 29 -2 57 0 4 11 9 24 13 17 5 19 8 8 15 -15 10 -5 35 10 25 6 -3 18 4
28 15 10 12 23 21 30 21 6 0 11 5 11 10 0 6 -2 10 -4 10 -2 0 -12 3 -22 7 -10
3 -15 2 -12 -3 3 -5 0 -15 -8 -21 -7 -7 -15 -9 -19 -4 -3 5 1 12 7 14 8 3 6 6
-5 6 -10 1 -15 5 -12 11 3 5 -6 12 -20 16 -19 5 -25 12 -25 35 0 17 7 32 18
37 23 13 66 -3 56 -20 -6 -10 -4 -11 7 0 7 6 22 12 34 12 15 0 17 2 6 9 -8 5
-21 7 -30 4 -10 -3 -12 -2 -5 4 6 4 10 20 10 35 -1 14 2 24 6 22 4 -3 8 -12 8
-20 0 -10 5 -12 13 -8 8 5 8 2 -2 -9 -18 -22 2 -22 25 0 11 11 13 18 5 21 -6
2 -10 13 -10 25 1 17 2 18 6 5 2 -10 9 -18 14 -18z m423 15 c3 -8 1 -15 -4
-15 -6 0 -10 7 -10 15 0 8 2 15 4 15 2 0 6 -7 10 -15z m-240 -10 c-4 -8 -8
-15 -10 -15 -2 0 -4 7 -4 15 0 8 4 15 10 15 5 0 7 -7 4 -15z m-54 -5 c0 -5 -4
-10 -10 -10 -5 0 -10 5 -10 10 0 6 5 10 10 10 6 0 10 -4 10 -10z m-1210 -29
c0 -5 -9 -19 -21 -32 l-20 -24 13 25 c6 14 11 31 9 39 -1 7 2 10 8 6 6 -3 11
-10 11 -14z m534 13 c16 -6 23 -34 8 -34 -10 0 -32 22 -32 32 0 10 3 10 24 2z
m616 -9 c0 -8 -4 -15 -10 -15 -5 0 -7 7 -4 15 4 8 8 15 10 15 2 0 4 -7 4 -15z
m296 -26 c-9 -19 -15 -29 -16 -24 0 6 -3 21 -7 34 -4 16 -3 22 5 17 6 -3 14
-1 17 5 14 22 15 0 1 -32z m164 15 c0 -8 5 -12 10 -9 6 3 10 2 10 -4 0 -5 -4
-12 -9 -15 -5 -3 -7 -16 -3 -29 5 -20 4 -21 -11 -8 -9 7 -17 22 -17 32 0 10
-4 20 -9 23 -5 4 -7 -3 -4 -14 7 -25 -15 -34 -50 -21 -16 6 -27 18 -26 28 1
17 2 17 6 1 3 -12 13 -17 29 -16 23 2 35 18 14 18 -6 0 -5 6 2 14 7 7 19 11
25 9 7 -3 13 0 13 7 0 6 5 8 10 5 6 -3 10 -13 10 -21z m-1155 -15 c5 -23 10
-28 18 -20 9 9 9 14 -1 20 -11 7 -11 9 1 14 9 3 21 -1 27 -9 7 -8 18 -14 26
-14 16 0 36 -34 26 -45 -4 -5 -2 -6 3 -2 6 3 21 -1 35 -9 24 -13 24 -13 -18
-14 -26 0 -41 4 -37 10 3 6 -2 11 -12 12 -27 2 -36 4 -63 15 -15 7 -29 7 -34
2 -6 -5 -20 -9 -32 -9 -13 0 -26 -4 -29 -10 -3 -5 -11 -10 -16 -10 -15 0 7 35
23 36 37 3 58 18 58 40 0 34 17 30 25 -7z m1022 -1 c-3 -7 -5 -2 -5 12 0 14 2
19 5 13 2 -7 2 -19 0 -25z m-1431 -6 c-22 -5 -30 3 -21 18 5 8 11 7 22 -2 15
-12 14 -13 -1 -16z m284 -2 c0 -11 -4 -20 -9 -20 -5 0 -7 9 -4 20 3 11 7 20 9
20 2 0 4 -9 4 -20z m281 2 c15 -17 15 -20 -2 -31 -12 -7 -19 -7 -19 -1 0 5 -7
10 -15 10 -15 0 -21 21 -8 33 11 12 28 8 44 -11z m805 -19 c-3 -3 -13 -3 -22
1 -13 5 -14 9 -3 22 11 14 13 14 22 -1 5 -9 6 -19 3 -22z m54 -13 c0 -5 -5
-10 -11 -10 -5 0 -7 5 -4 10 3 6 8 10 11 10 2 0 4 -4 4 -10z m-1135 -10 c-3
-5 -11 -10 -16 -10 -6 0 -7 5 -4 10 3 6 11 10 16 10 6 0 7 -4 4 -10z m1092 4
c-3 -3 -12 -4 -19 -1 -8 3 -5 6 6 6 11 1 17 -2 13 -5z m-687 -24 c11 -7 7 -9
-17 -7 -17 1 -29 5 -26 10 6 10 25 9 43 -3z m852 -8 c9 -8 23 -11 30 -6 7 4
10 4 6 -1 -4 -4 0 -22 8 -39 l15 -31 -19 22 c-11 12 -22 19 -26 16 -3 -4 -6
-1 -6 5 0 7 -3 11 -7 10 -13 -3 -83 25 -83 34 0 13 64 6 82 -10z m-288 -7
c-10 -8 -23 -15 -28 -15 -5 0 -18 -7 -28 -17 -13 -12 -18 -13 -18 -3 0 24 33
50 63 50 29 0 30 -1 11 -15z m-657 -1 c-3 -3 -12 -4 -19 -1 -8 3 -5 6 6 6 11
1 17 -2 13 -5z m-28 -21 c3 -5 17 -9 31 -11 13 -1 28 -9 33 -18 5 -8 26 -26
48 -40 23 -14 37 -29 33 -36 -4 -6 -3 -8 3 -5 6 4 16 0 23 -9 11 -12 10 -21
-3 -47 l-16 -32 0 33 c-1 19 -6 32 -14 32 -16 0 -70 54 -62 62 3 3 -6 9 -21
12 -15 4 -33 14 -39 23 -8 11 -29 16 -63 17 -40 1 -52 5 -52 16 0 12 10 15 47
13 26 -2 49 -6 52 -10z m-396 -13 c-3 -12 -8 -19 -11 -16 -5 6 5 36 12 36 2 0
2 -9 -1 -20z m140 -7 c-48 -29 -59 -29 -36 0 11 15 28 24 46 24 l29 0 -39 -24z
m147 11 c0 -8 -4 -12 -10 -9 -5 3 -10 10 -10 16 0 5 5 9 10 9 6 0 10 -7 10
-16z m926 -11 c-10 -10 -19 5 -10 18 6 11 8 11 12 0 2 -7 1 -15 -2 -18z m-956
6 c0 -5 -4 -8 -9 -4 -5 3 -16 -1 -24 -10 -8 -8 -25 -12 -36 -10 -16 3 -24 -2
-30 -17 -7 -19 -8 -19 -14 -4 -5 13 3 22 36 36 47 22 77 25 77 9z m930 1 c0
-5 -5 -10 -11 -10 -5 0 -7 5 -4 10 3 6 8 10 11 10 2 0 4 -4 4 -10z m-600 -15
c-7 -8 -17 -15 -22 -15 -6 0 -5 7 2 15 7 8 17 15 22 15 6 0 5 -7 -2 -15z m764
0 c8 -8 19 -15 25 -15 19 0 20 -16 1 -28 -16 -10 -18 -9 -14 2 4 10 0 14 -13
12 -17 -3 -93 29 -93 39 0 12 80 3 94 -10z m-624 1 c0 -3 -4 -8 -10 -11 -5 -3
-10 -1 -10 4 0 6 5 11 10 11 6 0 10 -2 10 -4z m-757 -26 c-3 -12 -8 -19 -11
-16 -5 6 5 36 12 36 2 0 2 -9 -1 -20z m90 -2 c-5 -24 -50 -64 -61 -54 -4 5 55
76 64 76 0 0 -1 -10 -3 -22z m957 18 c0 -2 -7 -7 -16 -10 -8 -3 -12 -2 -9 4 6
10 25 14 25 6z m84 -3 c3 -4 -14 -28 -40 -54 -43 -44 -45 -47 -21 -46 14 1 23
5 21 8 -2 3 7 17 19 29 l21 24 7 -32 c4 -18 12 -39 19 -47 15 -18 3 -19 -34
-5 -15 5 -26 6 -26 1 0 -5 16 -15 36 -21 48 -16 37 -23 -22 -14 -30 4 -57 16
-72 31 l-24 24 21 15 c11 8 21 20 21 26 0 12 50 67 61 68 3 0 9 -3 13 -7z
m-724 -33 c16 -16 22 -18 26 -6 3 8 13 12 25 9 24 -7 63 -69 53 -85 -5 -7 -2
-9 7 -6 8 3 23 0 33 -8 17 -12 17 -14 4 -19 -9 -4 -22 -5 -29 -4 -22 4 -109
-11 -109 -19 0 -18 -63 -44 -91 -38 -27 5 -28 4 -15 -9 8 -8 27 -15 43 -15 21
-1 24 -3 13 -9 -17 -11 -73 -15 -149 -13 -43 2 -52 5 -47 18 3 8 2 12 -3 9 -5
-3 -11 2 -13 12 -2 10 -13 17 -30 17 -14 1 -24 -2 -22 -6 3 -4 11 -8 19 -8 23
0 26 -28 3 -36 -15 -4 -26 -1 -35 12 -18 25 -17 4 2 -22 8 -12 12 -24 9 -27
-7 -6 53 -27 80 -27 17 0 18 -2 6 -10 -12 -8 -10 -10 8 -10 33 0 25 -31 -10
-41 -31 -8 -52 9 -42 35 3 9 2 16 -4 16 -6 0 -12 -6 -15 -12 -2 -7 -11 1 -20
18 -9 17 -13 34 -10 38 4 3 2 6 -4 6 -6 0 -18 19 -28 42 -16 40 -16 43 2 55
10 7 27 21 37 30 18 14 20 14 33 -3 12 -17 13 -16 11 16 -3 32 -1 35 24 33 19
-1 25 2 22 11 -5 14 31 46 52 46 7 0 15 -16 18 -35 7 -35 5 -51 -4 -49 -57 14
-64 15 -54 4 6 -6 18 -13 25 -14 8 -2 22 -7 32 -11 27 -11 217 1 231 15 8 9
-1 10 -38 5 -46 -7 -48 -7 -37 13 6 11 11 29 10 39 0 10 -3 13 -6 6 -2 -7 -9
-13 -14 -13 -5 0 -9 6 -9 13 0 6 -4 18 -9 26 -8 12 -12 12 -25 2 -16 -13 -76
-7 -76 8 0 29 91 30 120 1z m337 14 c-3 -3 -12 -4 -19 -1 -8 3 -5 6 6 6 11 1
17 -2 13 -5z m233 -24 c-18 -11 -22 -7 -14 14 5 13 10 14 18 6 8 -8 7 -13 -4
-20z m295 20 c15 -6 25 -16 22 -23 -4 -14 -46 -18 -63 -5 -6 4 -20 -1 -33 -13
-25 -23 -41 -18 -21 6 10 12 9 15 -6 15 -28 0 -4 18 31 23 17 2 33 5 37 6 4 0
19 -4 33 -9z m-1105 -25 c0 -22 -39 -40 -54 -24 -8 9 -8 10 2 5 7 -4 12 -2 12
6 0 18 21 39 32 32 4 -3 8 -12 8 -19z m-350 -5 c0 -11 -2 -20 -4 -20 -2 0 -6
9 -9 20 -3 11 -1 20 4 20 5 0 9 -9 9 -20z m1545 -6 c13 -14 22 -31 19 -38 -6
-16 -68 -46 -95 -46 -20 0 -19 2 6 32 18 21 25 39 22 55 -6 31 17 30 48 -3z
m-385 -30 c0 -8 -6 -14 -14 -14 -9 0 -12 7 -9 20 6 22 23 18 23 -6z m-625 -14
c-3 -5 -16 -10 -28 -9 -21 0 -21 1 -2 9 28 12 37 12 30 0z m-575 -4 c0 -3 -4
-8 -10 -11 -5 -3 -10 -1 -10 4 0 6 5 11 10 11 6 0 10 -2 10 -4z m223 -16 c-5
-19 -23 -39 -23 -25 0 9 20 45 24 45 2 0 2 -9 -1 -20z m63 -15 c-8 -22 -25
-18 -23 4 0 11 5 17 9 15 4 -3 8 1 9 8 0 10 2 10 6 0 3 -7 2 -19 -1 -27z m30
-1 c-4 -9 -9 -15 -11 -12 -3 3 -3 13 1 22 4 9 9 15 11 12 3 -3 3 -13 -1 -22z
m904 -35 c0 -5 -4 -9 -10 -9 -5 0 -10 7 -10 16 0 8 5 12 10 9 6 -3 10 -10 10
-16z m220 11 c0 -5 -7 -10 -15 -10 -8 0 -15 5 -15 10 0 6 7 10 15 10 8 0 15
-4 15 -10z m190 -4 c0 -2 -7 -7 -16 -10 -8 -3 -12 -2 -9 4 6 10 25 14 25 6z
m-1590 -21 c0 -8 -9 -15 -20 -15 -13 0 -18 5 -14 15 8 19 34 19 34 0z m780 5
c0 -3 -5 -11 -12 -18 -20 -20 -2 -24 31 -8 45 24 52 21 39 -16 -6 -18 -14 -35
-18 -38 -4 -3 -11 -14 -17 -24 -12 -21 -53 -30 -53 -12 0 6 -6 0 -13 -14 -8
-14 -9 -28 -4 -31 5 -4 -10 -21 -32 -40 -26 -20 -40 -38 -36 -47 4 -12 3 -12
-9 -3 -12 10 -16 8 -21 -9 -3 -11 -10 -18 -15 -15 -5 3 -11 -3 -14 -12 -3 -11
-4 -8 -3 7 3 37 -28 38 -48 1 -18 -36 -18 -36 -51 -15 -13 9 -34 17 -44 18
-11 0 -20 4 -20 9 0 4 0 14 0 22 0 8 6 15 13 15 8 0 25 9 38 20 58 48 98 72
107 66 5 -3 16 4 25 15 9 10 25 19 35 19 10 0 27 7 38 15 25 19 15 19 -31 0
-36 -16 -37 -16 -30 7 6 21 4 20 -18 -6 -15 -18 -28 -26 -36 -22 -8 5 -14 0
-18 -13 -3 -12 -12 -21 -19 -21 -8 0 -14 -4 -14 -10 0 -5 -9 -10 -19 -10 -11
0 -21 -5 -23 -11 -2 -6 -26 -20 -53 -30 l-50 -19 30 26 c17 14 25 23 18 20
-10 -6 -30 31 -21 38 1 2 39 16 83 31 44 16 96 40 115 54 34 25 70 37 70 24 0
-3 -8 -15 -17 -26 -17 -20 -17 -20 2 -13 11 4 29 9 39 12 11 2 27 11 35 21 15
16 15 16 -1 4 -22 -16 -23 -8 -3 23 14 20 45 32 45 16z m458 -11 c7 -12 11
-23 9 -25 -6 -6 -37 25 -37 37 0 16 15 10 28 -12z m-1215 -28 c4 -1 7 -7 7
-14 0 -7 -13 -14 -30 -15 -24 -2 -30 2 -30 18 0 15 5 19 23 16 12 -3 25 -5 30
-5z m210 -25 c4 -10 1 -13 -8 -9 -8 3 -12 9 -9 14 7 12 11 11 17 -5z m-220
-32 c-5 -13 -7 -13 -14 -2 -7 10 -9 10 -9 1 0 -7 -4 -13 -10 -13 -5 0 -10 7
-10 15 0 9 9 15 25 15 18 0 23 -4 18 -16z m330 9 c-7 -2 -21 -2 -30 0 -10 3
-4 5 12 5 17 0 24 -2 18 -5z m-396 -50 c-3 -10 -5 -2 -5 17 0 19 2 27 5 18 2
-10 2 -26 0 -35z m1543 38 c0 -15 -16 -22 -35 -15 -13 5 -14 8 -3 15 18 12 38
11 38 0z m-286 -15 c7 3 18 -7 24 -21 15 -33 15 -55 1 -55 -6 0 -8 -7 -5 -16
3 -9 2 -12 -5 -9 -6 4 -8 13 -5 21 3 8 1 14 -5 14 -6 0 -8 7 -5 15 3 9 -1 18
-9 21 -8 4 -12 10 -9 15 3 5 0 9 -6 9 -6 0 -8 5 -4 12 6 9 9 9 11 1 3 -7 10
-10 17 -7z m-366 -32 c-26 -29 -32 -31 -19 -5 6 10 8 20 6 23 -2 2 4 4 15 5
18 2 18 0 -2 -23z m-560 -12 c-5 -23 -25 -25 -31 -3 -6 24 0 31 19 24 8 -3 14
-12 12 -21z m-323 -22 c3 -5 1 -10 -4 -10 -6 0 -11 5 -11 10 0 6 2 10 4 10 3
0 8 -4 11 -10z m242 -15 c8 -9 12 -19 8 -23 -3 -4 -11 1 -16 11 -6 9 -15 14
-21 11 -7 -4 -8 -2 -4 4 9 16 14 15 33 -3z m914 -38 c-10 -9 -11 -8 -5 6 3 10
9 15 12 12 3 -3 0 -11 -7 -18z m209 13 c0 -5 -2 -10 -4 -10 -3 0 -8 5 -11 10
-3 6 -1 10 4 10 6 0 11 -4 11 -10z m30 -61 c0 -5 7 -9 16 -9 8 0 13 4 10 9 -3
5 3 11 14 14 10 3 21 0 23 -7 6 -16 -4 -37 -14 -30 -5 3 -9 0 -9 -7 0 -8 -4
-8 -16 2 -13 10 -17 10 -25 -2 -8 -13 -13 -6 -10 14 1 5 -3 6 -8 3 -5 -3 -11
3 -14 13 -3 14 0 17 14 14 11 -3 19 -9 19 -14z m150 -9 c0 -10 5 -20 12 -22 7
-3 5 -7 -5 -11 -13 -5 -20 0 -27 19 -14 35 -12 44 5 38 8 -4 15 -14 15 -24z
m-945 -30 c-10 -11 -21 -17 -24 -14 -3 3 3 12 13 20 28 20 32 17 11 -6z m760
2 c-3 -3 -11 0 -18 7 -9 10 -8 11 6 5 10 -3 15 -9 12 -12z m150 -32 c3 -5 -1
-10 -9 -10 -9 0 -16 5 -16 10 0 6 4 10 9 10 6 0 13 -4 16 -10z m-915 -19 c0
-16 -14 -20 -27 -10 -19 17 -16 28 7 22 11 -3 20 -9 20 -12z m290 -16 c10 -12
6 -13 -27 -8 -52 8 -66 23 -21 23 19 0 41 -7 48 -15z m810 -5 c0 -5 -4 -10
-10 -10 -5 0 -10 5 -10 10 0 6 5 10 10 10 6 0 10 -4 10 -10z m-395 -42 c-9
-52 -9 -52 -32 -37 -32 20 -13 78 25 79 11 0 12 -10 7 -42z m329 15 c4 -5 13
-8 19 -8 7 0 13 -8 15 -18 3 -15 -1 -17 -25 -11 -34 8 -55 23 -47 35 6 11 28
12 38 2z m-44 -29 c0 -8 -4 -14 -10 -14 -5 0 -10 9 -10 21 0 11 5 17 10 14 6
-3 10 -13 10 -21z m-100 6 c0 -5 -2 -10 -4 -10 -3 0 -8 5 -11 10 -3 6 -1 10 4
10 6 0 11 -4 11 -10z m80 -36 c0 -8 -4 -12 -10 -9 -5 3 -10 10 -10 16 0 5 5 9
10 9 6 0 10 -7 10 -16z m-174 -19 c-14 -21 -14 -24 -1 -19 8 4 15 10 15 16 0
5 5 6 10 3 8 -5 7 -11 -1 -21 -10 -12 -9 -13 6 -8 13 5 16 4 11 -4 -4 -7 -2
-12 6 -12 9 0 9 -3 -2 -10 -20 -13 -33 -13 -25 0 4 6 -7 10 -27 9 -32 0 -32
-1 -8 -10 24 -10 24 -11 6 -25 -11 -8 -23 -14 -28 -14 -4 0 -8 -9 -8 -21 0
-11 5 -17 10 -14 6 3 10 1 10 -5 0 -6 -10 -8 -26 -4 -20 5 -25 3 -22 -6 2 -8
-4 -22 -14 -32 -9 -9 -15 -24 -12 -33 5 -11 2 -13 -10 -9 -8 3 -18 14 -21 24
-3 10 -19 22 -35 25 -17 4 -30 10 -30 15 0 4 -20 20 -45 35 -45 26 -51 45 -14
45 13 0 19 7 20 23 l0 22 9 -22 c5 -13 15 -24 22 -24 24 -3 88 -5 88 -3 0 2
-8 10 -17 19 -12 13 -14 21 -6 34 13 20 38 21 37 1 -1 -10 8 -15 28 -14 46 2
47 3 43 24 -3 18 15 34 44 39 2 1 -4 -10 -13 -24z m122 -40 c-7 -8 -48 35 -48
49 0 6 12 -2 27 -16 15 -15 24 -30 21 -33z m-988 -49 c0 -2 -7 -7 -16 -10 -8
-3 -12 -2 -9 4 6 10 25 14 25 6z m148 -41 c-3 -3 -9 2 -12 12 -6 14 -5 15 5 6
7 -7 10 -15 7 -18z m851 2 c-8 -7 -19 -21 -23 -32 -6 -16 -9 -17 -16 -5 -14
22 -12 43 3 37 8 -3 20 -1 28 4 21 13 27 10 8 -4z m-941 -22 c-3 -3 -9 2 -12
12 -6 14 -5 15 5 6 7 -7 10 -15 7 -18z m516 -20 c-5 -13 -2 -14 19 -6 18 7 30
6 46 -5 30 -21 17 -34 -21 -23 -18 5 -40 7 -49 4 -9 -3 -22 2 -29 10 -7 9 -9
15 -4 14 21 -4 28 2 14 11 -12 8 -11 10 7 10 16 0 21 -4 17 -15z m-799 -5 c9
8 15 8 20 0 4 -6 1 -9 -7 -8 -7 2 -12 -4 -12 -13 1 -17 -12 -19 -33 -6 -6 4
-13 1 -16 -5 -3 -7 -4 -3 -4 10 1 27 5 27 24 5 13 -17 14 -16 9 7 -3 14 -3 19
0 12 4 -9 9 -10 19 -2z m1132 -14 c-11 -9 -14 -17 -8 -21 11 -6 11 -55 0 -55
-4 0 -10 7 -13 16 -11 28 -6 53 12 63 25 15 30 13 9 -3z m-837 -11 c0 -8 -4
-15 -10 -15 -5 0 -7 7 -4 15 4 8 8 15 10 15 2 0 4 -7 4 -15z m-94 -17 c4 -13
17 -33 30 -45 13 -12 24 -27 24 -33 0 -21 -30 -9 -51 20 -19 24 -25 27 -37 17
-13 -10 -14 -9 -2 13 7 14 13 26 12 28 -1 1 -2 7 -2 12 0 19 19 10 26 -12z
m888 -30 c9 -33 8 -35 -14 -41 -11 -3 -20 -1 -20 4 0 5 5 9 10 9 6 0 8 11 4
25 -3 14 -2 25 4 25 5 0 12 -10 16 -22z m-1088 -10 c-1 -26 -18 -27 -22 -2 -2
12 2 21 10 21 7 0 13 -9 12 -19z m40 -5 c1 -14 -3 -22 -10 -20 -16 5 -20 44
-4 44 7 0 14 -11 14 -24z m40 7 c0 -9 -6 -17 -13 -17 -7 0 -13 8 -13 17 0 9 6
17 13 17 7 0 13 -8 13 -17z m234 -39 c0 -26 -20 3 -25 35 l-5 29 15 -25 c8
-14 14 -32 15 -39z m174 43 c9 -3 14 -10 11 -14 -3 -5 11 -4 31 1 25 7 39 7
49 -1 10 -8 16 -7 24 7 9 17 10 17 17 0 4 -11 13 -16 24 -12 9 3 23 -1 30 -10
13 -16 40 -21 40 -7 0 9 92 8 108 -2 11 -7 72 -5 72 3 0 2 -8 10 -17 17 -16
12 -16 13 -2 14 22 0 88 -29 69 -30 -10 -1 -11 -3 -3 -6 7 -3 21 0 33 6 16 9
22 8 27 -6 7 -19 -15 -36 -39 -30 -10 2 -23 -2 -29 -10 -10 -12 -15 -12 -31 2
-17 16 -19 16 -32 -1 -9 -12 -20 -16 -35 -12 -13 3 -24 0 -27 -6 -3 -8 -29
-11 -82 -8 -120 6 -153 4 -166 -9 -8 -9 -4 -11 20 -6 16 4 41 2 55 -3 21 -8
17 -10 -24 -10 -27 -1 -57 4 -68 10 -15 7 -24 7 -34 -1 -21 -17 -83 5 -118 42
l-28 30 7 -28 c4 -15 13 -39 20 -53 14 -27 4 -58 -22 -68 -7 -3 -11 -9 -8 -14
3 -5 0 -17 -6 -26 -10 -17 -10 -16 -9 2 3 37 -1 43 -21 38 -11 -3 -17 -9 -14
-14 3 -5 -2 -9 -10 -9 -38 0 -7 27 38 34 20 3 62 36 45 36 -9 0 -19 -3 -23 -7
-10 -11 -36 -12 -36 -2 0 5 6 9 13 9 6 0 18 4 26 9 11 7 11 13 -3 32 -27 39
-19 99 14 99 29 0 50 -11 43 -23 -4 -6 2 -8 15 -5 12 4 22 2 22 -4 0 -5 5 -6
11 -2 6 3 9 17 6 30 -5 27 -5 26 17 18z m546 -4 c0 -5 -5 -10 -11 -10 -5 0 -7
5 -4 10 3 6 8 10 11 10 2 0 4 -4 4 -10z m255 -10 c-3 -5 -12 -10 -18 -10 -7 0
-6 4 3 10 19 12 23 12 15 0z m-1226 -52 c-1 -17 -2 -19 -6 -5 -2 9 -9 17 -15
17 -6 0 -8 -9 -5 -19 3 -13 0 -18 -8 -15 -19 8 -6 44 16 44 13 0 19 -7 18 -22z
m1069 -42 c-2 -11 -9 -21 -16 -24 -18 -5 -32 39 -20 62 10 19 11 19 25 0 7
-10 12 -28 11 -38z m105 39 c-3 -9 -8 -14 -10 -11 -3 3 -2 9 2 15 9 16 15 13
8 -4z m-959 -2 c4 -5 11 -8 15 -8 9 0 61 -41 61 -49 0 -3 -9 -6 -20 -6 -14 0
-20 -7 -21 -22 0 -13 -3 -17 -6 -10 -2 6 -15 12 -27 12 -20 0 -23 5 -24 45 0
43 6 54 22 38z m-65 -16 c13 5 14 3 3 -8 -10 -11 -15 -10 -27 4 -8 9 -10 13
-4 8 6 -5 19 -7 28 -4z m858 -24 c-3 -3 -11 -2 -17 2 -8 5 -7 11 2 22 12 15
13 14 16 -1 2 -10 1 -20 -1 -23z m-837 -3 c0 -5 -5 -10 -11 -10 -5 0 -7 5 -4
10 3 6 8 10 11 10 2 0 4 -4 4 -10z m625 0 c-3 -5 -16 -10 -28 -10 -18 0 -19 2
-7 10 20 13 43 13 35 0z m-55 -23 c12 -4 11 -6 -3 -6 -12 -1 -16 -6 -11 -13 6
-10 4 -10 -7 0 -7 6 -29 12 -48 12 -30 1 -33 2 -18 11 9 6 26 7 37 4 13 -4 20
-2 20 7 0 9 3 9 8 2 4 -6 14 -14 22 -17z m-572 -39 c12 -27 -17 -32 -36 -6 -7
10 -18 15 -24 12 -8 -5 -9 -1 -5 10 4 10 7 23 7 29 0 10 51 -30 58 -45z m457
42 c3 -5 -1 -10 -9 -10 -9 0 -16 5 -16 10 0 6 4 10 9 10 6 0 13 -4 16 -10z
m-585 -32 c39 -42 44 -64 6 -29 -32 31 -45 51 -31 51 2 0 14 -10 25 -22z m317
-48 c-12 -32 -15 -34 -35 -22 -10 7 -8 15 9 35 26 34 41 27 26 -13z m692 -39
c-18 -23 -39 -41 -48 -41 -10 0 -6 10 15 32 61 68 86 74 33 9z m-903 4 c-3 -9
0 -15 9 -15 8 0 15 -3 15 -7 0 -5 14 -9 32 -10 38 -3 98 -30 98 -44 0 -6 4 -8
8 -5 5 3 26 -11 46 -30 29 -28 35 -38 26 -49 -9 -11 -5 -17 19 -30 17 -8 31
-17 31 -19 0 -10 -72 2 -83 14 -6 8 -8 12 -3 8 6 -5 14 -8 20 -8 5 0 1 6 -9
14 -11 8 -23 12 -28 9 -8 -5 -82 49 -155 114 -32 28 -42 43 -37 56 4 9 9 17
12 17 3 0 3 -7 -1 -15z m460 -2 c13 -17 14 -17 8 2 -6 19 -6 19 11 3 33 -31
-7 -68 -73 -68 -23 0 -27 4 -27 30 0 48 53 69 81 33z m132 -29 c2 -32 0 -35
-13 -24 -13 11 -13 15 -3 21 8 6 9 9 2 9 -7 0 -14 7 -18 15 -3 10 1 15 12 15
12 0 18 -10 20 -36z m-383 -22 c-3 -3 -11 0 -18 7 -9 10 -8 11 6 5 10 -3 15
-9 12 -12z m345 -12 c0 -5 -6 -10 -14 -10 -8 0 -18 5 -21 10 -3 6 3 10 14 10
12 0 21 -4 21 -10z m-263 -22 c-3 -8 -6 -5 -6 6 -1 11 2 17 5 13 3 -3 4 -12 1
-19z m523 2 c-14 -10 -27 -17 -29 -15 -8 8 22 35 38 35 12 0 10 -5 -9 -20z
m-563 3 c-4 -3 -2 -12 4 -20 12 -14 9 -16 -15 -7 -16 6 -11 34 7 34 6 0 7 -3
4 -7z m273 -3 c8 -5 11 -10 5 -10 -5 0 -17 5 -25 10 -8 5 -10 10 -5 10 6 0 17
-5 25 -10z m-53 -32 c-3 -8 -6 -5 -6 6 -1 11 2 17 5 13 3 -3 4 -12 1 -19z m35
-10 c-9 -9 -12 -7 -12 12 0 19 3 21 12 12 9 -9 9 -15 0 -24z m98 -8 c0 -11 -4
-20 -10 -20 -5 0 -10 9 -10 20 0 11 5 20 10 20 6 0 10 -9 10 -20z m116 8 c4
-7 3 -8 -4 -4 -7 4 -12 3 -12 -1 0 -11 -69 -48 -76 -41 -3 4 4 9 16 13 15 5
19 12 15 23 -5 13 -3 14 6 5 9 -9 15 -8 26 3 17 17 20 17 29 2z m-828 -16 c2
-6 10 -8 19 -5 10 4 14 2 12 -6 -3 -7 -7 -13 -9 -13 -3 0 -24 -3 -48 -8 -46
-8 -66 7 -44 33 13 15 64 15 70 -1z m425 -39 c-7 -2 -19 -2 -25 0 -7 3 -2 5
12 5 14 0 19 -2 13 -5z m-453 -18 c0 -8 -4 -15 -9 -15 -13 0 -22 16 -14 24 11
11 23 6 23 -9z m770 4 c11 -8 9 -9 -10 -3 -14 3 -22 3 -18 -1 8 -9 -9 -35 -23
-35 -5 0 -5 7 -2 17 5 12 3 14 -8 9 -8 -4 -5 0 5 8 23 19 35 20 56 5z m-795
-29 c3 -6 -1 -7 -9 -4 -18 7 -21 14 -7 14 6 0 13 -4 16 -10z m548 -1 c-8 -8
-16 -8 -30 0 -16 9 -14 10 12 11 21 0 26 -3 18 -11z m67 -15 c0 -2 -12 -4 -26
-4 -14 0 -23 4 -20 9 6 8 46 4 46 -5z m373 1 c-1 -5 -8 -14 -17 -20 -18 -11
-42 7 -31 25 8 13 51 9 48 -5z m18 -34 c-8 -5 -11 -16 -8 -24 3 -9 -1 -18 -9
-21 -9 -3 -12 -10 -9 -16 4 -6 11 -8 16 -5 15 10 10 -13 -8 -30 -11 -11 -26
-15 -45 -11 -15 3 -28 1 -28 -4 0 -6 -7 -10 -15 -10 -13 0 -11 5 5 23 12 12
25 23 31 23 5 1 13 2 17 3 4 0 8 10 8 21 0 12 -5 19 -13 16 -7 -3 -10 1 -7 9
3 8 11 12 18 9 7 -3 19 2 26 11 7 8 18 15 24 15 6 0 5 -4 -3 -9z m-334 -103
c-3 -8 -6 -5 -6 6 -1 11 2 17 5 13 3 -3 4 -12 1 -19z m-497 -48 c-13 -24 -27
-25 -71 -5 l-34 16 43 -3 c23 -2 42 0 42 4 0 5 7 8 15 8 13 0 14 -4 5 -20z
m739 -31 c-24 -15 -29 -10 -11 11 10 12 18 16 21 9 2 -6 -3 -15 -10 -20z
m-464 11 c3 -6 -1 -13 -10 -16 -13 -6 -14 -9 -3 -16 8 -5 -13 -6 -52 -2 -73 7
-89 13 -42 15 18 1 37 3 42 4 6 1 18 4 28 5 10 1 5 5 -13 10 l-30 8 37 1 c20
0 40 -4 43 -9z m525 -20 c0 -13 -7 -20 -20 -20 -25 0 -27 27 -2 33 9 3 18 5
20 6 1 0 2 -8 2 -19z m220 -51 c0 -6 -8 -8 -17 -5 -16 5 -16 5 -2 -7 14 -11
15 -14 2 -26 -13 -12 -16 -12 -24 0 -5 8 -9 10 -9 5 0 -5 -7 -3 -15 4 -13 11
-12 15 7 35 17 18 27 21 40 14 10 -5 18 -15 18 -20z m-735 -9 c-3 -5 -12 -10
-20 -10 -8 0 -17 5 -20 10 -4 6 5 10 20 10 15 0 24 -4 20 -10z"/>
<path d="M347 2273 c-4 -3 -7 -20 -7 -36 0 -26 -3 -29 -25 -23 -14 4 -25 2
-25 -3 0 -13 43 -22 55 -10 7 7 16 79 9 79 0 0 -4 -3 -7 -7z"/>
<path d="M1131 2194 c0 -11 3 -14 6 -6 3 7 2 16 -1 19 -3 4 -6 -2 -5 -13z"/>
<path d="M475 2039 c-4 -6 -5 -12 -2 -15 2 -3 7 2 10 11 7 17 1 20 -8 4z"/>
<path d="M1197 1909 c7 -7 15 -10 18 -7 3 3 -2 9 -12 12 -14 6 -15 5 -6 -5z"/>
<path d="M1127 1608 c6 -35 11 -44 17 -37 7 8 -6 69 -15 69 -5 0 -6 -15 -2
-32z"/>
<path d="M1042 1433 c-6 -2 -10 -9 -6 -14 3 -5 0 -9 -7 -9 -7 0 -3 -9 9 -20
12 -11 27 -20 34 -20 7 0 5 5 -5 11 -13 8 -17 18 -13 35 4 13 5 24 4 23 -2 0
-9 -3 -16 -6z"/>
<path d="M1224 1335 c8 -8 18 -15 22 -15 3 0 1 7 -6 15 -7 8 -17 15 -22 15 -5
0 -3 -7 6 -15z"/>
<path d="M698 1673 c6 -2 18 -2 25 0 6 3 1 5 -13 5 -14 0 -19 -2 -12 -5z"/>
<path d="M546 1651 c8 -8 83 -8 78 0 -2 4 -22 7 -44 6 -21 -1 -37 -3 -34 -6z"/>
<path d="M878 1473 c7 -3 16 -2 19 1 4 3 -2 6 -13 5 -11 0 -14 -3 -6 -6z"/>
<path d="M670 1406 c-8 -10 -7 -15 2 -18 16 -6 38 1 38 12 0 15 -28 19 -40 6z"/>
<path d="M1360 1065 c0 -8 7 -15 16 -15 8 0 13 -4 10 -9 -3 -5 1 -11 9 -15 21
-8 19 6 -5 32 -24 26 -30 27 -30 7z"/>
<path d="M759 579 c-6 -4 -8 -12 -5 -18 11 -17 26 -13 19 5 -5 15 -3 15 23 -1
16 -9 21 -11 12 -3 -10 8 -16 17 -13 20 8 7 -23 5 -36 -3z"/>
<path d="M530 515 c0 -8 4 -15 10 -15 5 0 7 7 4 15 -4 8 -8 15 -10 15 -2 0 -4
-7 -4 -15z"/>
<path d="M990 2460 c-8 -5 -11 -12 -8 -16 4 -3 14 1 23 10 18 17 9 21 -15 6z"/>
<path d="M1088 2386 c-13 -18 -13 -23 -3 -23 8 0 12 4 9 8 -2 4 3 12 12 17 9
5 13 12 8 15 -5 3 -17 -5 -26 -17z"/>
<path d="M1511 2374 c0 -11 3 -14 6 -6 3 7 2 16 -1 19 -3 4 -6 -2 -5 -13z"/>
<path d="M280 1639 c0 -5 -5 -7 -12 -3 -7 4 -8 3 -4 -4 4 -6 13 -9 21 -5 17 6
20 23 5 23 -5 0 -10 -5 -10 -11z"/>
<path d="M316 1585 c4 -8 0 -23 -7 -33 -13 -15 -12 -16 4 -3 19 15 22 36 7 46
-6 3 -7 -1 -4 -10z"/>
<path d="M248 1543 c7 -3 16 -2 19 1 4 3 -2 6 -13 5 -11 0 -14 -3 -6 -6z"/>
<path d="M1605 1500 c76 -25 91 -25 41 0 -22 11 -53 20 -70 19 -25 0 -20 -4
29 -19z"/>
<path d="M1725 1510 c-3 -5 -2 -10 4 -10 5 0 13 5 16 10 3 6 2 10 -4 10 -5 0
-13 -4 -16 -10z"/>
<path d="M1780 1500 c0 -5 -7 -7 -15 -4 -8 4 -15 1 -15 -5 0 -6 3 -10 8 -9 4
1 20 -4 35 -10 41 -17 57 -15 57 8 0 21 -24 28 -35 10 -3 -5 -13 -10 -21 -10
-8 0 -12 5 -9 10 4 6 11 7 17 4 7 -4 8 -2 4 4 -9 14 -26 16 -26 2z"/>
<path d="M228 1397 c-3 -13 -1 -32 3 -43 5 -13 8 -7 8 24 1 46 -4 55 -11 19z"/>
<path d="M334 1395 c-3 -14 -4 -34 -1 -44 3 -15 -2 -21 -22 -26 -26 -7 -26 -7
-3 -16 14 -5 33 -4 50 3 18 7 22 12 12 15 -11 3 -14 15 -12 48 4 49 -13 63
-24 20z"/>
<path d="M390 1404 c0 -9 5 -14 12 -12 18 6 21 28 4 28 -9 0 -16 -7 -16 -16z"/>
<path d="M270 1355 c0 -6 9 -11 20 -12 11 -1 20 4 20 12 0 8 -9 13 -20 12 -11
-1 -20 -6 -20 -12z"/>
<path d="M390 1356 c0 -9 7 -16 16 -16 17 0 14 22 -4 28 -7 2 -12 -3 -12 -12z"/>
<path d="M495 1280 c-8 -26 3 -60 20 -60 14 0 26 45 18 67 -8 20 -31 16 -38
-7z"/>
<path d="M171 1264 c0 -11 3 -14 6 -6 3 7 2 16 -1 19 -3 4 -6 -2 -5 -13z"/>
<path d="M560 1230 c0 -5 5 -10 11 -10 5 0 7 5 4 10 -3 6 -8 10 -11 10 -2 0
-4 -4 -4 -10z"/>
<path d="M874 1214 c3 -9 6 -19 6 -22 0 -9 20 21 20 31 0 4 -7 7 -16 7 -11 0
-14 -5 -10 -16z"/>
<path d="M490 1200 c8 -6 23 -10 33 -10 11 0 20 -10 24 -30 l6 -30 16 32 c9
18 22 32 29 31 7 -2 12 1 12 6 0 6 -30 10 -67 10 -45 0 -62 -3 -53 -9z"/>
<path d="M1205 1171 c2 -12 0 -33 -5 -47 -8 -20 -6 -24 9 -24 14 0 17 6 14 28
-3 24 -2 25 7 7 9 -18 10 -17 7 7 -2 15 -1 29 2 31 3 2 1 3 -5 1 -6 -1 -17 3
-23 9 -8 8 -9 4 -6 -12z"/>
<path d="M166 1164 c-9 -22 4 -64 19 -64 7 0 15 11 17 25 3 14 1 25 -3 25 -5
0 -9 7 -9 15 0 20 -16 19 -24 -1z"/>
<path d="M280 1158 c0 -12 3 -18 7 -14 11 10 12 36 2 36 -5 0 -9 -10 -9 -22z"/>
<path d="M610 1140 c0 -29 4 -40 15 -40 11 0 15 11 15 40 0 29 -4 40 -15 40
-11 0 -15 -11 -15 -40z"/>
<path d="M848 1135 c-3 -14 -2 -27 1 -30 4 -2 8 10 9 26 3 36 -4 38 -10 4z"/>
<path d="M98 1043 c7 -3 16 -2 19 1 4 3 -2 6 -13 5 -11 0 -14 -3 -6 -6z"/>
<path d="M114 1022 c3 -5 0 -13 -6 -15 -9 -4 -10 -6 -1 -6 17 -1 25 16 12 25
-7 4 -9 3 -5 -4z"/>
<path d="M355 970 c3 -5 8 -10 11 -10 2 0 4 5 4 10 0 6 -5 10 -11 10 -5 0 -7
-4 -4 -10z"/>
<path d="M374 484 c-21 -20 -50 -44 -62 -52 -13 -9 -28 -26 -33 -39 -5 -13
-24 -31 -43 -40 -19 -9 -33 -20 -30 -24 2 -4 0 -10 -6 -14 -5 -3 -10 -10 -10
-15 0 -10 55 36 128 108 55 53 81 67 63 33 -11 -19 -4 -34 10 -25 15 9 10 42
-6 52 -13 7 -12 10 10 20 14 6 25 16 25 22 0 15 -2 13 -46 -26z"/>
<path d="M1738 503 c6 -2 18 -2 25 0 6 3 1 5 -13 5 -14 0 -19 -2 -12 -5z"/>
<path d="M420 479 c-13 -9 -13 -10 2 -6 9 3 19 1 22 -6 2 -7 5 -4 5 6 1 20 -7
21 -29 6z"/>
<path d="M301 326 c-8 -9 -8 -16 -2 -20 6 -4 7 -14 4 -23 -4 -11 6 -27 33 -50
28 -23 34 -33 22 -33 -10 0 -18 -6 -18 -14 0 -23 -15 -27 -51 -14 -33 12 -34
12 -9 18 22 6 20 8 -17 14 -82 15 -77 -18 9 -59 27 -13 46 -18 45 -11 -3 15
44 9 56 -7 6 -8 7 -7 4 5 -3 9 -3 18 0 21 3 3 5 36 5 72 0 55 -4 70 -23 91
-26 27 -41 30 -58 10z"/>
<path d="M610 124 c14 -2 49 -9 78 -15 57 -11 125 -3 101 12 -8 5 -57 8 -109
7 -52 0 -84 -2 -70 -4z"/>
<path d="M1450 100 c0 -5 5 -10 11 -10 5 0 7 5 4 10 -3 6 -8 10 -11 10 -2 0
-4 -4 -4 -10z"/>
</g>
</svg>
